<?xml version="1.0" encoding="utf-8"?>
<!-- Generator: Adobe Illustrator 28.1.0, SVG Export Plug-In . SVG Version: 6.00 Build 0)  -->
<svg version="1.1" id="Layer_1" xmlns="http://www.w3.org/2000/svg" xmlns:xlink="http://www.w3.org/1999/xlink" x="0px" y="0px"
	 viewBox="0 0 600 600" style="enable-background:new 0 0 600 600;" xml:space="preserve">
<style type="text/css">
	.st0{fill:#1C2E5C;}
</style>
<g>
	<path class="st0" d="M123.15,239.57v68.05c0,14.59,5.91,27.79,15.47,37.35c9.56,9.56,22.76,15.47,37.35,15.47h15.24
		c14.59,0,27.77-5.91,37.34-15.47c9.56-9.56,15.47-22.76,15.47-37.35v-68.05H123.15z M181.6,356.44h-5.62
		c-13.48,0-25.7-5.46-34.52-14.31c-8.83-8.83-14.31-21.04-14.31-34.52v-7.41h54.45V356.44z M181.6,296.22h-54.45v-52.66h54.45
		V296.22z M240.03,307.61c0,13.48-5.44,25.7-14.29,34.52c-8.85,8.85-21.06,14.31-34.52,14.31h-5.62V300.2h54.44V307.61z
		 M240.03,296.22h-54.44v-52.66h54.44V296.22z"/>
</g>
<g>
	<polygon class="st0" points="175.49,350.01 175.49,306.63 154.4,343.23 167.01,338.86 	"/>
	<polygon class="st0" points="137.91,328.31 175.49,306.63 133.25,306.66 143.33,315.39 	"/>
</g>
<g>
	<path class="st0" d="M163.7,282.17c-2.25,1.96-5.37,2.94-9.34,2.94c-4.03,0-7.16-0.97-9.37-2.92c-2.21-1.95-3.32-4.95-3.32-9.01
		v-18.52h6.55v18.52c0,0.81,0.07,1.6,0.21,2.38c0.14,0.78,0.43,1.47,0.88,2.06c0.44,0.6,1.06,1.08,1.86,1.46
		c0.79,0.38,1.85,0.56,3.19,0.56c2.34,0,3.95-0.52,4.84-1.57c0.89-1.04,1.33-2.68,1.33-4.9v-18.52h6.55v18.52
		C167.07,277.22,165.95,280.22,163.7,282.17z"/>
</g>
<g>
	<path class="st0" d="M215.69,317.47c-0.38-0.61-0.86-1.15-1.43-1.61c-0.57-0.46-1.22-0.82-1.94-1.08
		c-0.72-0.26-1.47-0.39-2.26-0.39c-1.44,0-2.66,0.28-3.67,0.84c-1.01,0.56-1.82,1.31-2.45,2.24c-0.63,0.94-1.08,2-1.37,3.2
		c-0.29,1.19-0.43,2.43-0.43,3.71c0,1.22,0.14,2.41,0.43,3.57c0.29,1.16,0.74,2.2,1.37,3.12c0.62,0.93,1.44,1.67,2.45,2.22
		c1.01,0.56,2.23,0.84,3.67,0.84c1.96,0,3.49-0.6,4.58-1.79c1.1-1.19,1.77-2.77,2.02-4.73h6.19c-0.16,1.82-0.58,3.46-1.26,4.93
		c-0.68,1.47-1.58,2.72-2.69,3.75c-1.11,1.04-2.42,1.82-3.91,2.37c-1.5,0.54-3.14,0.82-4.93,0.82c-2.23,0-4.23-0.39-6.01-1.16
		c-1.78-0.77-3.28-1.84-4.51-3.2c-1.22-1.36-2.16-2.96-2.81-4.79c-0.65-1.83-0.98-3.81-0.98-5.93c0-2.17,0.33-4.19,0.98-6.05
		c0.65-1.86,1.59-3.48,2.81-4.87c1.22-1.39,2.72-2.47,4.51-3.26c1.78-0.79,3.78-1.18,6.01-1.18c1.6,0,3.12,0.23,4.55,0.69
		c1.43,0.46,2.7,1.14,3.83,2.02c1.13,0.88,2.06,1.98,2.79,3.28c0.73,1.3,1.19,2.8,1.39,4.48h-6.2
		C216.31,318.75,216.07,318.08,215.69,317.47z"/>
</g>
<path class="st0" d="M193.71,289.27c-0.43,0.43,0-19.68,0-19.68l19.09-19.09l19.3,19.3v19.49l-19.34-19.34L193.71,289.27z"/>
<g>
	<path class="st0" d="M291.47,285.67c-2.12,2.07-5.17,3.1-9.14,3.1c-3.97,0-7.02-1.04-9.14-3.12c-2.12-2.08-3.18-5.04-3.18-8.87
		v-17.13h6.12v16.43c0,2.3,0.53,4.06,1.58,5.28c1.05,1.22,2.59,1.83,4.62,1.83c2,0,3.53-0.61,4.6-1.83c1.07-1.22,1.6-2.98,1.6-5.28
		v-16.43h6.12v17.13C294.65,280.64,293.59,283.61,291.47,285.67z"/>
	<path class="st0" d="M300.24,288.2v-28.55h6.12l12.86,19.19v-19.19h5.92v28.55h-6.16l-12.82-19.14v19.14H300.24z"/>
	<path class="st0" d="M331.13,288.2v-28.55h6.12v28.55H331.13z"/>
	<path class="st0" d="M355.86,288.78c-4.14,0-7.52-1.38-10.15-4.13s-3.94-6.32-3.94-10.7c0-4.3,1.35-7.85,4.05-10.66
		c2.7-2.81,6.13-4.21,10.29-4.21c3.48,0,6.34,0.98,8.59,2.94s3.77,4.74,4.56,8.36l-6.04,1.56c-1.15-4.85-3.6-7.27-7.35-7.27
		c-2.25,0-4.09,0.86-5.53,2.59c-1.44,1.73-2.16,3.96-2.16,6.7c0,2.74,0.73,4.96,2.18,6.68c1.45,1.71,3.33,2.57,5.63,2.57
		c3.7,0,6.08-1.96,7.15-5.87l6.33,1.03C367.65,285.3,363.12,288.78,355.86,288.78z"/>
	<path class="st0" d="M396.74,282.57c0.41,0,0.75-0.04,1.03-0.12v5.67c-0.49,0.16-1.08,0.25-1.77,0.25c-2.6,0-4.79-0.62-6.55-1.87
		c-1.77-1.25-3.42-3.59-4.95-7.05l-0.86-1.77h-3.86v10.52h-6.12v-28.55h12.82c3.09,0,5.59,0.81,7.48,2.42
		c1.89,1.62,2.83,3.83,2.83,6.66c0,2.16-0.59,3.94-1.77,5.34c-1.18,1.4-2.83,2.31-4.97,2.75c1.18,2.25,2.29,3.77,3.33,4.56
		C394.41,282.18,395.53,282.57,396.74,282.57z M379.77,264.95v7.48h6.04c3.04,0,4.56-1.25,4.56-3.74s-1.55-3.74-4.64-3.74H379.77z"
		/>
	<path class="st0" d="M420.89,288.2l-2.38-6.86h-10.89l-2.3,6.86h-6.41l10.19-28.55h8.01l10.19,28.55H420.89z M409.23,276.53h7.6
		l-3.86-11.13L409.23,276.53z"/>
	<path class="st0" d="M430.26,288.2v-28.55h19.97v5.59h-13.84v6.61h11.3v5.59h-11.3v10.76H430.26z"/>
	<path class="st0" d="M461.15,288.2v-22.96h-8.79v-5.59h23.66v5.59h-8.75v22.96H461.15z"/>
	<path class="st0" d="M270.41,327.64v-28.55h12.08c3.12,0,5.66,0.84,7.62,2.51c1.96,1.67,2.94,3.94,2.94,6.82
		c0,2.88-0.98,5.15-2.94,6.82c-1.96,1.67-4.5,2.51-7.62,2.51h-5.96v9.9H270.41z M276.53,312.49h5.3c1.56,0,2.75-0.36,3.57-1.07
		c0.82-0.71,1.23-1.71,1.23-3c0-1.29-0.42-2.28-1.25-2.98c-0.84-0.7-2.05-1.05-3.64-1.05h-5.22V312.49z"/>
	<path class="st0" d="M320.82,324.03c-2.77,2.79-6.27,4.19-10.52,4.19s-7.75-1.4-10.52-4.19s-4.15-6.34-4.15-10.64
		c0-4.3,1.38-7.85,4.15-10.66c2.77-2.81,6.27-4.21,10.52-4.21s7.75,1.4,10.52,4.21c2.77,2.81,4.15,6.36,4.15,10.66
		C324.97,317.69,323.59,321.24,320.82,324.03z M310.3,322.63c2.44,0,4.42-0.85,5.96-2.55s2.3-3.93,2.3-6.7c0-2.77-0.77-5-2.3-6.72
		c-1.53-1.71-3.52-2.57-5.96-2.57c-2.41,0-4.38,0.86-5.92,2.57c-1.53,1.71-2.3,3.95-2.3,6.72c0,2.77,0.77,5,2.3,6.7
		S307.89,322.63,310.3,322.63z"/>
	<path class="st0" d="M352.66,322.02c0.41,0,0.75-0.04,1.03-0.12v5.67c-0.49,0.16-1.08,0.25-1.77,0.25c-2.6,0-4.79-0.62-6.55-1.87
		c-1.77-1.25-3.42-3.59-4.95-7.04l-0.86-1.77h-3.86v10.52h-6.12v-28.55h12.82c3.09,0,5.59,0.81,7.48,2.42
		c1.89,1.62,2.83,3.83,2.83,6.66c0,2.16-0.59,3.94-1.77,5.34c-1.18,1.4-2.83,2.31-4.97,2.75c1.18,2.25,2.29,3.77,3.33,4.56
		S351.45,322.02,352.66,322.02z M335.69,304.39v7.48h6.04c3.04,0,4.56-1.25,4.56-3.74s-1.55-3.74-4.64-3.74H335.69z"/>
	<path class="st0" d="M363.34,327.64v-22.96h-8.79v-5.59h23.66v5.59h-8.75v22.96H363.34z"/>
	<path class="st0" d="M398.67,327.64l-2.38-6.86H385.4l-2.3,6.86h-6.41l10.19-28.55h8.01l10.19,28.55H398.67z M387,315.98h7.6
		l-3.86-11.13L387,315.98z"/>
	<path class="st0" d="M408.04,327.64v-28.55h6.12v22.96h13.02v5.59H408.04z"/>
</g>
</svg>
