<?xml version="1.0" encoding="utf-8"?>
<!-- Generator: Adobe Illustrator 25.2.1, SVG Export Plug-In . SVG Version: 6.00 Build 0)  -->
<svg version="1.1"
	 id="Layer_1" xmlns:cc="http://creativecommons.org/ns#" xmlns:dc="http://purl.org/dc/elements/1.1/" xmlns:rdf="http://www.w3.org/1999/02/22-rdf-syntax-ns#"
	 xmlns="http://www.w3.org/2000/svg" xmlns:xlink="http://www.w3.org/1999/xlink" x="0px" y="0px" viewBox="0 0 204.9 37.2"
	 style="enable-background:new 0 0 204.9 37.2;" xml:space="preserve">
<style type="text/css">
	.st0{fill:#FFFFFF;}
</style>
<g transform="matrix(1.25 0 0 -1.25 -592.92 613.51)">
	<path class="st0" d="M547.2,490c-9.2,0-14.1-7.4-14.1-14.4c0-7.8,5.6-13.8,13.4-13.8c7.9,0,13.9,5.8,13.9,14.5
		C560.4,484.4,554.4,490,547.2,490z M475.6,489.4v-1c3.3-0.2,3.5-0.5,3.6-5.1v-14.9c0-4.5-0.3-4.8-3.8-5.1v-1h9.5
		c3.1,0,5.8,0.4,7.9,1.6c2.4,1.4,3.9,3.4,3.9,6.4c0,4.2-3.4,6.4-7.2,7v0.1c2,0.5,5.4,2.3,5.4,5.9c0,2.1-0.7,3.6-2.1,4.6
		c-1.4,1-3.1,1.5-6.1,1.5L475.6,489.4L475.6,489.4z M503.9,489.4v-1c3.3-0.2,3.7-0.5,3.7-5.1v-14.9c0-4.5-0.3-4.8-3.8-5.1v-1h11v1
		c-3.4,0.2-3.7,0.5-3.7,5.1v5.8h2.2c1.3,0,1.9-0.4,2.6-1.5c1.2-1.9,2.9-5,4.2-6.9c1.6-2.3,3-3.7,7.8-3.9h0.6l0.1,0.8
		c-1.5,0.4-2.2,1-3.1,2.1c-1.1,1.2-2,2.4-3.5,4.6c-1.2,1.8-2.9,4.7-3.7,5.9c3.4,1.4,5.5,3.8,5.5,7.3c0,2.4-1.1,4.3-2.7,5.3
		c-1.5,1-3.9,1.4-6.5,1.4L503.9,489.4L503.9,489.4z M564.4,489.4v-1c2.4-0.2,3-0.5,4.1-4l7.2-22.3h1.2l6.8,20.2l0.1,0.1l7.5-20.3
		h1.1c3.5,11.4,6.5,20.9,6.9,22c1.4,3.8,1.7,3.9,4.4,4.3v1h-8.8v-1l1.2-0.2c1.9-0.2,2.1-0.7,1.5-3.1c-0.7-3-3.1-11.7-4.8-17l-0.1,0
		l-7.5,20.8l-1,0l-6.6-20.8h-0.1l-5.6,17.7c-0.6,1.8-0.3,2.2,1.5,2.4l1.3,0.2v1L564.4,489.4L564.4,489.4z M608.5,489.4v-1
		c1.7-0.1,2.8-0.4,3.6-1.4c0.7-0.9,0.8-1.6,0.8-4.6v-9c0-4.4-0.2-6.6-0.3-7.9c-0.2-1.4-1.3-2.1-3.6-2.2v-1h10v1
		c-2.7,0.1-3.9,0.7-4.1,2.2c-0.2,1.3-0.3,3.5-0.3,7.9V484l0.1,0l18-21.8h1.1v16.3c0,4.4,0.2,6.6,0.3,7.9c0.2,1.4,1.3,2.1,3.6,2.2v1
		h-9.9v-1c2.7-0.1,3.9-0.7,4.1-2.2c0.2-1.3,0.3-3.5,0.3-7.9v-9.9H632l-17.5,20.9L608.5,489.4L608.5,489.4z M546.1,488.6
		c5.9,0,10.2-4.9,10.2-13.9c0-7.7-4.1-11.6-9-11.6c-6.1,0-10.2,5.6-10.2,13.6C537.1,484.6,541.2,488.6,546.1,488.6z M485.3,488.2
		c4.9,0,5.9-2.8,5.9-5.3c0-3.4-2-5.3-6-5.3h-2.6v9.2c0,0.8,0.1,1,0.4,1.1C483.3,488,483.9,488.2,485.3,488.2z M513.7,488.2
		c3.1,0,6.3-1.7,6.3-6.1c0-2-0.6-4.1-2.4-5.5c-1.1-0.9-2.4-1.1-4.1-1.1H511v11.4c0,0.8,0.1,1,0.4,1.1
		C511.7,488.1,512.3,488.2,513.7,488.2z M482.6,476.4h2.4c4.3,0,7.6-2.1,7.6-6.6c0-4.4-2.9-6.1-6.4-6.1c-3,0-3.6,0.9-3.6,3.7
		C482.6,467.4,482.6,476.4,482.6,476.4z"/>
</g>
</svg>
