<?xml version="1.0" encoding="utf-8"?>
<!-- Generator: Adobe Illustrator 25.2.1, SVG Export Plug-In . SVG Version: 6.00 Build 0)  -->
<svg version="1.1" id="Layer_1" xmlns="http://www.w3.org/2000/svg" xmlns:xlink="http://www.w3.org/1999/xlink" x="0px" y="0px"
	 viewBox="0 0 356.6 54.5" style="enable-background:new 0 0 356.6 54.5;" xml:space="preserve">
<style type="text/css">
	.st0{fill:#FFFFFF;}
</style>
<g transform="translate(-2.6886 -2.8515)">
	<path class="st0" d="M50,30.6c-2.5-2.2-3.2-5.1-3.2-7.6c0-1.8,0.5-4.8,3-7.1c1.9-1.7,4.3-2.7,8.1-2.7c1.6,0,2.6,0.1,3.7,0.3
		c1,0.1,1.8,0.4,2.6,0.4c0.3,0,0.4,0.2,0.4,0.3c0,0.2-0.1,0.5-0.1,1.4c-0.1,0.9,0,2.3-0.1,2.8c0,0.4-0.1,0.6-0.3,0.6
		c-0.2,0-0.3-0.2-0.3-0.6c0-0.8-0.4-1.7-1-2.4c-0.9-0.9-2.9-1.6-5.2-1.6c-2.2,0-3.7,0.6-4.8,1.6c-1.9,1.7-2.4,4.2-2.4,6.7
		c0,6.1,4.7,9.2,8.1,9.2c2.3,0,3.7-0.3,4.7-1.4c0.4-0.5,0.8-1.2,0.9-1.7c0.1-0.4,0.1-0.5,0.3-0.5c0.2,0,0.2,0.2,0.2,0.4
		c0,0.3-0.3,2.6-0.6,3.4c-0.1,0.4-0.2,0.6-0.7,0.7c-1,0.4-3,0.6-4.6,0.6C55.3,33.4,52.4,32.6,50,30.6"/>
	<path class="st0" d="M68,24.9c0-3.7,2.4-8.5,8.9-8.5c5.4,0,8.7,3.1,8.7,8.1s-3.5,8.8-8.9,8.8C70.5,33.3,68,28.7,68,24.9 M82.6,25.3
		c0-4.8-2.8-7.8-6.3-7.8c-2.5,0-5.3,1.4-5.3,6.8c0,4.5,2.5,8,6.6,8C79.1,32.3,82.6,31.5,82.6,25.3"/>
	<path class="st0" d="M93.3,26.8c0,2.8,0,4.2,0.5,4.6c0.4,0.3,0.9,0.5,2.6,0.5c1.1,0,2,0,2.5-0.6c0.3-0.3,0.5-0.9,0.6-1.3
		c0-0.2,0.1-0.3,0.2-0.3c0.2,0,0.2,0.1,0.2,0.4c0,0.2-0.2,1.9-0.3,2.5c-0.1,0.5-0.2,0.6-1.4,0.6c-3.1,0-4.5-0.1-6.3-0.1
		c-0.5,0-1.9,0.1-2.7,0.1c-0.3,0-0.4-0.1-0.4-0.2c0-0.1,0.1-0.2,0.3-0.2c0.3,0,0.6,0,0.8-0.1c0.4-0.1,0.5-0.6,0.6-1.2
		c0.1-0.9,0.1-2.6,0.1-4.6V23c0-3.3,0-3.9,0-4.6c0-0.7-0.2-1.1-0.9-1.2c-0.2,0-0.4-0.1-0.7-0.1c-0.2,0-0.4,0-0.4-0.2
		s0.2-0.2,0.5-0.2c1,0,2.4,0.1,3,0.1c0.5,0,2.1-0.1,2.9-0.1c0.3,0,0.5,0,0.5,0.2s-0.1,0.2-0.4,0.2c-0.2,0-0.6,0-0.8,0.1
		c-0.6,0.1-0.8,0.5-0.8,1.2c0,0.7,0,1.3,0,4.6C93.3,23,93.3,26.8,93.3,26.8z"/>
	<path class="st0" d="M104,23c0-3.3,0-3.9,0-4.6c0-0.7-0.2-1.1-0.9-1.2c-0.2,0-0.5-0.1-0.8-0.1c-0.2,0-0.4,0-0.4-0.2
		c0-0.1,0.2-0.2,0.5-0.2c1.1,0,2.5,0.1,3.1,0.1c0.5,0,1.9-0.1,2.7-0.1c0.3,0,0.5,0,0.5,0.2c0,0.2-0.1,0.2-0.3,0.2
		c-0.2,0-0.4,0-0.6,0.1c-0.6,0.1-0.8,0.5-0.8,1.2c0,0.7,0,1.3,0,4.6v3c0,3.1,0.6,4.4,1.7,5.3c1,0.8,2,0.9,2.7,0.9
		c0.9,0,2.1-0.3,3-1.2c1.2-1.2,1.3-3.1,1.3-5.3V23c0-3.3,0-3.9,0-4.6c0-0.7-0.2-1.1-0.9-1.2c-0.2,0-0.5-0.1-0.8-0.1s-0.4,0-0.4-0.2
		c0-0.1,0.2-0.2,0.5-0.2c1.1,0,2.5,0.1,2.5,0.1c0.3,0,1.6-0.1,2.5-0.1c0.3,0,0.5,0,0.5,0.2c0,0.2-0.1,0.2-0.4,0.2
		c-0.2,0-0.4,0-0.6,0.1c-0.6,0.1-0.8,0.5-0.8,1.2c0,0.7,0,1.3,0,4.6v2.3c0,2.4-0.2,4.9-2,6.5c-1.5,1.3-3.1,1.6-4.5,1.6
		c-1.1,0-3.2-0.1-4.8-1.5c-1.1-1-1.9-2.6-1.9-5.7C104,26.1,104,23,104,23z"/>
	<path class="st0" d="M124.3,16.8c0.1-0.4,0.2-0.6,0.4-0.6c0.2,0,0.3,0.1,0.6,0.7l5.9,12.2l5.9-12.3c0.1-0.3,0.3-0.5,0.5-0.5
		s0.3,0.2,0.4,0.7l2,13.3c0.2,1.4,0.4,2,1.1,2.2c0.6,0.2,1.1,0.2,1.3,0.2c0.2,0,0.3,0,0.3,0.2c0,0.2-0.3,0.2-0.6,0.2
		c-0.5,0-3.5-0.1-4.4-0.1c-0.5,0-0.6-0.1-0.6-0.2c0-0.1,0.1-0.2,0.2-0.2c0.1,0,0.2-0.3,0.1-0.9l-1.3-9.5H136l-4.7,9.8
		c-0.5,1-0.6,1.2-0.8,1.2s-0.4-0.4-0.8-1.1c-0.5-1-2.2-4.3-2.5-4.9c-0.2-0.5-1.5-3.2-2.2-4.8h-0.1l-1.1,8.6c0,0.4-0.1,0.7-0.1,1
		c0,0.4,0.3,0.6,0.6,0.7c0.4,0.1,0.7,0.1,0.9,0.1c0.2,0,0.3,0,0.3,0.2c0,0.2-0.2,0.2-0.5,0.2c-0.9,0-1.9-0.1-2.3-0.1
		c-0.4,0-1.4,0.1-2.1,0.1c-0.2,0-0.4,0-0.4-0.2c0-0.1,0.1-0.2,0.3-0.2c0.2,0,0.3,0,0.6-0.1c0.6-0.1,0.8-1,0.9-1.7L124.3,16.8
		L124.3,16.8z"/>
	<path class="st0" d="M147.3,23c0-3.3,0-3.9,0-4.6c0-0.7-0.2-1.1-0.9-1.2c-0.2,0-0.5-0.1-0.8-0.1c-0.2,0-0.4,0-0.4-0.2
		c0-0.2,0.2-0.2,0.5-0.2c1.1,0,2.5,0.1,2.9,0.1c1.1,0,1.9-0.1,2.6-0.1c3.9,0,4.6,2.1,4.6,3.2c0,1.8-1,2.8-2.2,3.8
		c1.8,0.6,3.9,2.1,3.9,4.7c0,2.3-1.8,4.7-5.8,4.7c-0.5,0-2.5-0.1-3.1-0.1c-0.5,0-1.9,0.1-2.7,0.1c-0.3,0-0.4-0.1-0.4-0.2
		c0-0.1,0.1-0.2,0.3-0.2c0.3,0,0.6,0,0.8-0.1c0.4-0.1,0.5-0.6,0.6-1.2c0.1-0.9,0.1-2.6,0.1-4.6C147.3,26.8,147.3,23,147.3,23z
		 M149.9,23.3c0,0.2,0.1,0.2,0.1,0.2c0.2,0,0.5,0.1,1,0.1c0.7,0,1.2-0.1,1.6-0.4c0.6-0.5,0.9-1.2,0.9-2.3c0-1.4-0.8-3.3-2.7-3.3
		c-0.3,0-0.5,0-0.7,0c-0.2,0-0.2,0.1-0.2,0.4L149.9,23.3L149.9,23.3z M152.7,25.1c-0.5-0.3-0.9-0.5-1.8-0.5c-0.4,0-0.6,0-0.9,0
		c-0.1,0-0.1,0-0.1,0.2v5.1c0,1.4,0.1,1.8,0.8,2.1c0.6,0.2,1.1,0.3,1.6,0.3c1,0,2.6-0.5,2.6-2.8C154.8,28,154.4,26.2,152.7,25.1"/>
	<path class="st0" d="M162.3,23c0-3.3,0-3.9,0-4.6c0-0.7-0.3-1.1-0.7-1.2c-0.2-0.1-0.5-0.1-0.8-0.1c-0.2,0-0.3,0-0.3-0.2
		c0-0.1,0.2-0.2,0.5-0.2c0.8,0,2.2,0.1,2.8,0.1c0.5,0,1.8-0.1,2.6-0.1c0.3,0,0.5,0,0.5,0.2c0,0.2-0.1,0.2-0.3,0.2
		c-0.2,0-0.4,0-0.6,0.1c-0.6,0.1-0.8,0.5-0.8,1.2c0,0.7,0,1.3,0,4.6v3.8c0,2.1,0,3.8,0.1,4.7c0.1,0.6,0.2,1,0.9,1.1
		c0.3,0,0.8,0.1,1.1,0.1c0.2,0,0.3,0.1,0.3,0.2c0,0.2-0.2,0.2-0.4,0.2c-1.4,0-2.8-0.1-3.4-0.1c-0.5,0-1.9,0.1-2.7,0.1
		c-0.3,0-0.4-0.1-0.4-0.2c0-0.1,0.1-0.2,0.3-0.2c0.3,0,0.6,0,0.8-0.1c0.4-0.1,0.6-0.5,0.6-1.1c0.1-0.9,0.1-2.6,0.1-4.7L162.3,23
		L162.3,23z"/>
	<path class="st0" d="M175.4,27.4c-0.1,0-0.2,0-0.2,0.2l-1.2,3.1c-0.2,0.5-0.3,1.1-0.3,1.3c0,0.4,0.2,0.7,0.9,0.7h0.3
		c0.3,0,0.3,0,0.3,0.2c0,0.2-0.1,0.2-0.4,0.2c-0.7,0-1.6-0.1-2.3-0.1c-0.2,0-1.4,0.1-2.5,0.1c-0.3,0-0.4,0-0.4-0.2
		c0-0.1,0.1-0.2,0.3-0.2c0.2,0,0.5,0,0.7,0c1-0.1,1.4-0.9,1.8-1.9l5.4-13.5c0.3-0.6,0.4-0.9,0.6-0.9c0.2,0,0.3,0.2,0.5,0.7
		c0.5,1.2,4,10,5.4,13.3c0.8,1.9,1.4,2.2,1.9,2.4c0.3,0.1,0.6,0.1,0.9,0.1c0.2,0,0.3,0,0.3,0.2c0,0.2-0.2,0.2-1,0.2
		c-0.8,0-2.4,0-4.1,0c-0.4,0-0.6,0-0.6-0.2c0-0.1,0.1-0.2,0.3-0.2c0.2,0,0.3-0.2,0.2-0.5l-1.7-4.6c0-0.1-0.1-0.2-0.2-0.2L175.4,27.4
		L175.4,27.4L175.4,27.4z M179.8,26.3c0.1,0,0.1-0.1,0.1-0.1l-1.9-5.3c0-0.1,0-0.2-0.1-0.2c-0.1,0-0.1,0.1-0.1,0.2l-2,5.3
		c0,0.1,0,0.1,0.1,0.1H179.8z"/>
	<path class="st0" d="M198.5,21c0-3.9,0-4.6-0.1-5.5c-0.1-0.9-0.3-1.3-1.1-1.5c-0.2-0.1-0.6-0.1-1-0.1c-0.3,0-0.4-0.1-0.4-0.2
		c0-0.2,0.2-0.2,0.6-0.2c1.4,0,3,0.1,3.8,0.1c0.6,0,2.2-0.1,3.2-0.1c0.4,0,0.6,0.1,0.6,0.2s-0.2,0.2-0.4,0.2c-0.3,0-0.4,0-0.7,0.1
		c-0.7,0.1-0.9,0.6-1,1.5c-0.1,0.8-0.1,1.5-0.1,5.5v3.6c0,3.7,0.7,5.3,2,6.3c1.2,1,2.3,1.1,3.2,1.1c1.1,0,2.5-0.4,3.6-1.4
		c1.4-1.4,1.5-3.7,1.5-6.4V21c0-3.9,0-4.6-0.1-5.5c-0.1-0.9-0.3-1.3-1.1-1.5c-0.2-0.1-0.6-0.1-0.9-0.1s-0.4-0.1-0.4-0.2
		c0-0.2,0.2-0.2,0.5-0.2c1.3,0,2.9,0.1,3,0.1c0.3,0,1.9-0.1,2.9-0.1c0.4,0,0.5,0.1,0.5,0.2s-0.2,0.2-0.5,0.2c-0.3,0-0.4,0-0.7,0.1
		c-0.7,0.1-0.9,0.6-1,1.5c-0.1,0.8-0.1,1.5-0.1,5.5v2.8c0,2.9-0.3,5.9-2.4,7.8c-1.8,1.6-3.7,1.9-5.4,1.9c-1.4,0-3.8-0.1-5.7-1.8
		c-1.3-1.2-2.3-3.1-2.3-6.8L198.5,21L198.5,21z"/>
	<path class="st0" d="M221.8,30.1c0,1.7,0.3,2.2,0.8,2.4c0.4,0.1,0.8,0.2,1.1,0.2c0.2,0,0.4,0,0.4,0.2c0,0.2-0.2,0.2-0.5,0.2
		c-1.4,0-2.3-0.1-2.7-0.1c-0.2,0-1.2,0.1-2.3,0.1c-0.3,0-0.5,0-0.5-0.2c0-0.1,0.1-0.2,0.3-0.2c0.3,0,0.7,0,1-0.1
		c0.6-0.2,0.6-0.8,0.7-2.7l0.2-12.8c0-0.4,0.1-0.7,0.3-0.7c0.2,0,0.4,0.3,0.8,0.7c0.3,0.3,3.5,3.8,6.7,6.9c1.5,1.5,4.4,4.6,4.7,4.9
		h0.1l-0.2-9.7c0-1.3-0.2-1.7-0.7-1.9c-0.3-0.1-0.8-0.1-1.1-0.1c-0.3,0-0.3-0.1-0.3-0.2c0-0.2,0.2-0.2,0.6-0.2
		c1.1,0,2.2,0.1,2.6,0.1c0.2,0,1.1-0.1,2.1-0.1c0.3,0,0.5,0,0.5,0.2c0,0.1-0.1,0.2-0.4,0.2c-0.2,0-0.4,0-0.6,0.1
		c-0.6,0.2-0.8,0.6-0.8,1.8l-0.2,13.6c0,0.5-0.1,0.7-0.3,0.7c-0.2,0-0.5-0.2-0.7-0.5c-1.4-1.3-4.1-4.1-6.4-6.3
		c-2.4-2.3-4.7-5-5.1-5.4h-0.1L221.8,30.1L221.8,30.1z"/>
	<path class="st0" d="M241.7,23c0-3.3,0-3.9,0-4.6c0-0.7-0.3-1.1-0.7-1.2c-0.2-0.1-0.5-0.1-0.8-0.1c-0.2,0-0.3,0-0.3-0.2
		c0-0.1,0.2-0.2,0.5-0.2c0.8,0,2.2,0.1,2.8,0.1c0.5,0,1.8-0.1,2.6-0.1c0.3,0,0.5,0,0.5,0.2c0,0.2-0.1,0.2-0.3,0.2
		c-0.2,0-0.4,0-0.6,0.1c-0.6,0.1-0.8,0.5-0.8,1.2c0,0.7,0,1.3,0,4.6v3.8c0,2.1,0,3.8,0.1,4.7c0.1,0.6,0.2,1,0.9,1.1
		c0.3,0,0.8,0.1,1.1,0.1c0.2,0,0.3,0.1,0.3,0.2c0,0.2-0.2,0.2-0.4,0.2c-1.4,0-2.8-0.1-3.4-0.1c-0.5,0-1.9,0.1-2.7,0.1
		c-0.3,0-0.4-0.1-0.4-0.2c0-0.1,0.1-0.2,0.3-0.2c0.3,0,0.6,0,0.8-0.1c0.4-0.1,0.6-0.5,0.6-1.1c0.1-0.9,0.1-2.6,0.1-4.7L241.7,23
		C241.7,23,241.7,23,241.7,23z"/>
	<path class="st0" d="M251.2,18.8c-0.5-1.2-0.9-1.4-1.6-1.6c-0.3-0.1-0.7-0.1-0.8-0.1c-0.2,0-0.3-0.1-0.3-0.2c0-0.2,0.2-0.2,0.6-0.2
		c1.1,0,2.4,0.1,3.1,0.1c0.5,0,1.6-0.1,2.6-0.1c0.3,0,0.5,0,0.5,0.2s-0.1,0.2-0.3,0.2c-0.3,0-0.7,0-0.8,0.1
		c-0.1,0.1-0.2,0.3-0.2,0.5c0,0.3,0.2,0.9,0.5,1.7l3.7,9.8h0.1c0.9-2.4,3.7-9.3,4.2-10.7c0.1-0.3,0.2-0.6,0.2-0.8
		c0-0.2-0.1-0.3-0.3-0.4c-0.3-0.1-0.6-0.1-0.9-0.1c-0.2,0-0.4,0-0.4-0.2c0-0.2,0.2-0.2,0.6-0.2c1.1,0,2,0.1,2.3,0.1
		c0.4,0,1.4-0.1,2-0.1c0.3,0,0.5,0,0.5,0.2s-0.1,0.2-0.3,0.2c-0.2,0-0.7,0-1.1,0.3c-0.3,0.2-0.6,0.6-1.2,1.9c-0.8,2-1.4,3.2-2.6,5.8
		c-1.4,3.1-2.4,5.5-2.9,6.6c-0.6,1.3-0.7,1.6-1,1.6c-0.3,0-0.4-0.3-0.8-1.3C256.6,32,251.2,18.8,251.2,18.8z"/>
	<path class="st0" d="M269.9,23c0-3.3,0-3.9,0-4.6c0-0.7-0.2-1.1-0.9-1.2c-0.2,0-0.5-0.1-0.8-0.1c-0.2,0-0.4,0-0.4-0.2
		c0-0.1,0.2-0.2,0.5-0.2c1.1,0,2.5,0.1,3.1,0.1c0.7,0,5,0,5.4,0c0.4,0,0.8-0.1,0.9-0.1c0.1,0,0.2-0.1,0.3-0.1s0.1,0.1,0.1,0.2
		c0,0.2-0.1,0.4-0.2,1.4c0,0.2-0.1,1.2-0.1,1.4c0,0.1-0.1,0.2-0.2,0.2s-0.2-0.1-0.2-0.3c0-0.2,0-0.5-0.1-0.8
		c-0.1-0.4-0.4-0.6-1.4-0.8c-0.4,0-2.6-0.1-3.1-0.1c-0.1,0-0.2,0.1-0.2,0.2v5.5c0,0.2,0,0.2,0.2,0.2c0.5,0,3,0,3.5,0
		c0.5,0,0.8-0.1,1-0.3c0.2-0.2,0.2-0.3,0.3-0.3c0.1,0,0.1,0,0.1,0.2c0,0.1-0.1,0.5-0.2,1.6c0,0.4-0.1,1.3-0.1,1.4
		c0,0.2,0,0.4-0.2,0.4c-0.2,0-0.2-0.1-0.2-0.2c0-0.2,0-0.5-0.1-0.8c-0.1-0.4-0.4-0.8-1.2-0.8c-0.4,0-2.5-0.1-3.1-0.1
		c-0.1,0-0.1,0.1-0.1,0.2v1.7c0,0.7,0,2.7,0,3.3c0,1.5,0.4,1.8,2.6,1.8c0.6,0,1.5,0,2-0.3c0.6-0.3,0.8-0.7,1-1.6
		c0-0.2,0.1-0.3,0.2-0.3c0.2,0,0.2,0.2,0.2,0.4c0,0.5-0.2,2-0.3,2.4c-0.1,0.6-0.3,0.6-1.2,0.6c-3.3,0-4.7-0.1-6-0.1
		c-0.5,0-1.9,0.1-2.7,0.1c-0.3,0-0.4-0.1-0.4-0.2c0-0.1,0.1-0.2,0.3-0.2c0.3,0,0.6,0,0.8-0.1c0.4-0.1,0.5-0.6,0.6-1.2
		c0.1-0.9,0.1-2.6,0.1-4.6L269.9,23L269.9,23L269.9,23z"/>
	<path class="st0" d="M284.7,23c0-3.3,0-3.9,0-4.6c0-0.7-0.2-1.1-0.9-1.2c-0.2,0-0.5-0.1-0.8-0.1c-0.2,0-0.4,0-0.4-0.2
		s0.2-0.2,0.5-0.2c1.1,0,2.5,0.1,3,0.1c0.7,0,2.4-0.1,3-0.1c1.4,0,2.8,0.1,4,0.9c0.6,0.4,1.5,1.5,1.5,3c0,1.6-0.7,3.1-2.8,4.8
		c1.9,2.4,3.4,4.3,4.7,5.7c1.2,1.3,2.1,1.4,2.4,1.5c0.2,0,0.4,0.1,0.6,0.1c0.2,0,0.3,0.1,0.3,0.2c0,0.2-0.1,0.2-0.4,0.2h-2
		c-1.2,0-1.7-0.1-2.3-0.4c-0.9-0.5-1.7-1.5-3-3.2c-0.9-1.2-1.9-2.7-2.1-3c-0.1-0.1-0.2-0.1-0.4-0.1l-1.9,0c-0.1,0-0.2,0-0.2,0.2v0.3
		c0,2,0,3.7,0.1,4.6c0.1,0.6,0.2,1.1,0.8,1.2c0.3,0,0.8,0.1,1.1,0.1c0.2,0,0.3,0.1,0.3,0.2c0,0.2-0.1,0.2-0.4,0.2
		c-1.3,0-2.8-0.1-3.2-0.1c-0.4,0-1.8,0.1-2.6,0.1c-0.3,0-0.4-0.1-0.4-0.2c0-0.1,0.1-0.2,0.3-0.2c0.3,0,0.6,0,0.8-0.1
		c0.4-0.1,0.5-0.6,0.6-1.2c0.1-0.9,0.1-2.6,0.1-4.6L284.7,23C284.7,23,284.7,23,284.7,23z M287.3,24.7c0,0.2,0,0.3,0.2,0.4
		c0.5,0.1,1.1,0.2,1.6,0.2c0.9,0,1.1-0.1,1.5-0.4c0.6-0.5,1.3-1.5,1.3-3.2c0-3.1-2-3.9-3.3-3.9c-0.5,0-0.9,0-1.1,0.1
		c-0.1,0-0.2,0.1-0.2,0.3L287.3,24.7L287.3,24.7z"/>
	<path class="st0" d="M301.1,32.8c-0.3-0.2-0.4-0.3-0.4-0.7c0-1.2,0.1-2.5,0.1-2.8c0-0.3,0.1-0.6,0.3-0.6c0.2,0,0.2,0.2,0.2,0.4
		c0,0.3,0.1,0.7,0.2,1.1c0.5,1.6,1.7,2.2,3.1,2.2c1.9,0,2.9-1.3,2.9-2.5c0-1.1-0.3-2.1-2.1-3.5l-1-0.8c-2.4-1.9-3.2-3.4-3.2-5.1
		c0-2.4,2-4.1,5-4.1c1.4,0,2.3,0.2,2.9,0.4c0.2,0,0.3,0.1,0.3,0.3c0,0.3-0.1,0.9-0.1,2.6c0,0.5-0.1,0.6-0.2,0.6
		c-0.2,0-0.2-0.1-0.2-0.4c0-0.2-0.1-0.9-0.6-1.4c-0.3-0.4-0.9-1.1-2.4-1.1c-1.6,0-2.6,0.9-2.6,2.2c0,1,0.5,1.7,2.3,3.1l0.6,0.5
		c2.6,2,3.5,3.5,3.5,5.5c0,1.3-0.5,2.7-2,3.8c-1.1,0.7-2.3,0.9-3.4,0.9C303,33.3,302.1,33.2,301.1,32.8"/>
	<path class="st0" d="M315.8,23c0-3.3,0-3.9,0-4.6c0-0.7-0.3-1.1-0.7-1.2c-0.2-0.1-0.5-0.1-0.8-0.1c-0.2,0-0.3,0-0.3-0.2
		c0-0.1,0.2-0.2,0.5-0.2c0.8,0,2.2,0.1,2.8,0.1c0.5,0,1.8-0.1,2.6-0.1c0.3,0,0.5,0,0.5,0.2c0,0.2-0.1,0.2-0.3,0.2
		c-0.2,0-0.4,0-0.6,0.1c-0.6,0.1-0.8,0.5-0.8,1.2c0,0.7,0,1.3,0,4.6v3.8c0,2.1,0,3.8,0.1,4.7c0.1,0.6,0.2,1,0.9,1.1
		c0.3,0,0.8,0.1,1.1,0.1c0.2,0,0.3,0.1,0.3,0.2c0,0.2-0.2,0.2-0.4,0.2c-1.4,0-2.8-0.1-3.4-0.1c-0.5,0-1.9,0.1-2.7,0.1
		c-0.3,0-0.4-0.1-0.4-0.2c0-0.1,0.1-0.2,0.3-0.2c0.3,0,0.6,0,0.8-0.1c0.4-0.1,0.6-0.5,0.6-1.1c0.1-0.9,0.1-2.6,0.1-4.7
		C315.8,26.8,315.8,23,315.8,23z"/>
	<path class="st0" d="M330.6,17.9l-3.2,0.1c-1.3,0-1.8,0.2-2.1,0.6c-0.2,0.3-0.3,0.6-0.4,0.8c0,0.2-0.1,0.3-0.2,0.3
		c-0.1,0-0.2-0.1-0.2-0.3c0-0.3,0.4-2.3,0.5-2.5c0.1-0.3,0.1-0.4,0.3-0.4c0.2,0,0.4,0.2,0.9,0.3c0.6,0.1,1.4,0.1,2.2,0.1h8.5
		c1.4,0,1.9-0.2,2.1-0.2c0.2,0,0.2,0.1,0.2,0.5c0,0.5-0.1,1.9-0.1,2.5c0,0.2-0.1,0.3-0.2,0.3c-0.2,0-0.2-0.1-0.2-0.4l0-0.2
		c0-0.6-0.6-1.2-2.5-1.2l-2.7-0.1v8.8c0,2,0,3.7,0.1,4.6c0.1,0.6,0.2,1.1,0.8,1.2c0.3,0,0.8,0.1,1.1,0.1c0.2,0,0.3,0.1,0.3,0.2
		c0,0.2-0.2,0.2-0.4,0.2c-1.4,0-2.8-0.1-3.4-0.1c-0.5,0-1.9,0.1-2.7,0.1c-0.3,0-0.4-0.1-0.4-0.2c0-0.1,0.1-0.2,0.3-0.2
		c0.3,0,0.6,0,0.8-0.1c0.4-0.1,0.6-0.6,0.6-1.2c0.1-0.9,0.1-2.6,0.1-4.6L330.6,17.9L330.6,17.9z"/>
	<path class="st0" d="M348.5,27.4c0-1.2-0.2-1.6-0.5-2.3c-0.2-0.3-3-5.1-3.8-6.2c-0.5-0.8-1.1-1.3-1.5-1.6c-0.3-0.2-0.6-0.3-0.9-0.3
		c-0.2,0-0.3,0-0.3-0.2c0-0.1,0.1-0.2,0.4-0.2c0.4,0,2,0.1,2.7,0.1c0.5,0,1.3-0.1,2.3-0.1c0.2,0,0.3,0.1,0.3,0.2
		c0,0.1-0.2,0.1-0.5,0.2c-0.2,0-0.3,0.2-0.3,0.4c0,0.2,0.1,0.4,0.3,0.7c0.3,0.6,3.3,5.8,3.7,6.4c0.2-0.5,2.9-5.3,3.2-5.9
		c0.2-0.5,0.3-0.8,0.3-1.1c0-0.2-0.1-0.5-0.5-0.5c-0.2,0-0.4-0.1-0.4-0.2c0-0.2,0.1-0.2,0.4-0.2c0.7,0,1.4,0.1,2,0.1
		c0.5,0,1.9-0.1,2.3-0.1c0.2,0,0.4,0,0.4,0.2c0,0.2-0.2,0.2-0.4,0.2c-0.2,0-0.6,0.1-0.9,0.3c-0.5,0.2-0.7,0.5-1.2,1.1
		c-0.7,0.9-3.7,5.9-4.1,6.9c-0.3,0.8-0.3,1.4-0.3,2.2v1.8c0,0.3,0,1.3,0.1,2.2c0,0.6,0.2,1.1,0.9,1.2c0.3,0,0.8,0.1,1.1,0.1
		c0.2,0,0.3,0.1,0.3,0.2c0,0.2-0.2,0.2-0.5,0.2c-1.4,0-2.7-0.1-3.3-0.1c-0.5,0-1.9,0.1-2.7,0.1c-0.3,0-0.5,0-0.5-0.2
		c0-0.1,0.1-0.2,0.3-0.2c0.3,0,0.6,0,0.8-0.1c0.4-0.1,0.6-0.6,0.7-1.2c0.1-0.9,0.1-1.8,0.1-2.2L348.5,27.4L348.5,27.4z"/>
	<path class="st0" d="M49.7,49.7c0-2.2,0-2.6,0-3c0-0.5-0.2-0.7-0.5-0.8c-0.2,0-0.3-0.1-0.5-0.1c-0.1,0-0.2,0-0.2-0.1
		c0-0.1,0.1-0.1,0.3-0.1c0.5,0,1.4,0,1.8,0c0.4,0,1.2,0,1.7,0c0.2,0,0.3,0,0.3,0.1c0,0.1-0.1,0.1-0.2,0.1c-0.1,0-0.3,0-0.4,0
		c-0.4,0.1-0.5,0.3-0.5,0.8c0,0.5,0,0.8,0,3v2.5c0,1.4,0,2.5,0.1,3.1c0,0.4,0.1,0.6,0.6,0.7c0.2,0,0.5,0.1,0.7,0.1
		c0.2,0,0.2,0,0.2,0.1c0,0.1-0.1,0.1-0.3,0.1c-0.9,0-1.8,0-2.2,0c-0.3,0-1.2,0-1.8,0c-0.2,0-0.3,0-0.3-0.1c0-0.1,0.1-0.1,0.2-0.1
		c0.2,0,0.4,0,0.5-0.1c0.3-0.1,0.4-0.3,0.4-0.7c0.1-0.6,0.1-1.7,0.1-3.1C49.7,52.2,49.7,49.7,49.7,49.7z"/>
	<path class="st0" d="M57.6,54.4c0,1.1,0.2,1.5,0.5,1.6c0.2,0.1,0.5,0.1,0.7,0.1c0.2,0,0.2,0,0.2,0.1c0,0.1-0.1,0.1-0.3,0.1
		c-0.9,0-1.5,0-1.8,0c-0.1,0-0.8,0-1.5,0c-0.2,0-0.3,0-0.3-0.1c0-0.1,0.1-0.1,0.2-0.1c0.2,0,0.4,0,0.6-0.1c0.4-0.1,0.4-0.5,0.4-1.8
		l0.1-8.4c0-0.3,0-0.5,0.2-0.5c0.2,0,0.3,0.2,0.5,0.4c0.2,0.2,2.3,2.5,4.4,4.5c1,1,2.9,3,3.1,3.2h0.1l-0.1-6.4
		c0-0.9-0.1-1.1-0.5-1.3c-0.2-0.1-0.6-0.1-0.8-0.1c-0.2,0-0.2,0-0.2-0.1c0-0.1,0.2-0.1,0.4-0.1c0.7,0,1.4,0,1.7,0c0.2,0,0.7,0,1.4,0
		c0.2,0,0.3,0,0.3,0.1c0,0.1-0.1,0.1-0.3,0.1c-0.1,0-0.3,0-0.4,0c-0.4,0.1-0.5,0.4-0.5,1.2l-0.2,8.9c0,0.3-0.1,0.4-0.2,0.4
		c-0.2,0-0.3-0.2-0.5-0.3c-0.9-0.8-2.7-2.7-4.2-4.2c-1.5-1.5-3.1-3.3-3.4-3.6h0L57.6,54.4L57.6,54.4z"/>
	<path class="st0" d="M77.8,46.4l-2.1,0.1c-0.8,0-1.2,0.1-1.4,0.4c-0.1,0.2-0.2,0.4-0.2,0.5s-0.1,0.2-0.2,0.2
		c-0.1,0-0.1-0.1-0.1-0.2c0-0.2,0.3-1.5,0.3-1.6c0-0.2,0.1-0.3,0.2-0.3c0.1,0,0.3,0.1,0.6,0.2c0.4,0,0.9,0.1,1.4,0.1h5.6
		c0.5,0,0.8,0,1-0.1c0.2,0,0.3-0.1,0.4-0.1c0.1,0,0.1,0.1,0.1,0.3c0,0.3,0,1.3,0,1.6c0,0.1,0,0.2-0.1,0.2c-0.1,0-0.1-0.1-0.2-0.3
		l0-0.2c0-0.4-0.4-0.8-1.7-0.8l-1.8,0v5.8c0,1.3,0,2.4,0.1,3c0,0.4,0.1,0.7,0.6,0.8c0.2,0,0.5,0.1,0.7,0.1c0.2,0,0.2,0,0.2,0.1
		c0,0.1-0.1,0.1-0.3,0.1c-0.9,0-1.8,0-2.2,0c-0.3,0-1.2,0-1.8,0c-0.2,0-0.3,0-0.3-0.1c0-0.1,0.1-0.1,0.2-0.1c0.2,0,0.4,0,0.5-0.1
		c0.3-0.1,0.4-0.4,0.4-0.8c0.1-0.6,0.1-1.7,0.1-3C77.8,52.2,77.8,46.4,77.8,46.4z"/>
	<path class="st0" d="M94,50.1C94,50.1,94.1,50.1,94,50.1l0.1-0.4c0-2.2,0-2.5,0-3c0-0.5-0.1-0.7-0.6-0.8c-0.1,0-0.4,0-0.6,0
		c-0.2,0-0.2,0-0.2-0.1s0.1-0.1,0.3-0.1c0.8,0,1.7,0,2,0c0.3,0,1.2,0,1.8,0c0.2,0,0.3,0,0.3,0.1s-0.1,0.1-0.3,0.1
		c-0.1,0-0.2,0-0.4,0c-0.4,0.1-0.5,0.3-0.5,0.8c0,0.5,0,0.8,0,3v2.5c0,1.3,0,2.4,0.1,3c0,0.4,0.1,0.7,0.6,0.8c0.2,0,0.5,0.1,0.7,0.1
		c0.2,0,0.2,0,0.2,0.1c0,0.1-0.1,0.1-0.3,0.1c-0.9,0-1.8,0-2.2,0c-0.3,0-1.2,0-1.8,0c-0.2,0-0.3,0-0.3-0.1c0-0.1,0.1-0.1,0.2-0.1
		c0.2,0,0.4,0,0.5-0.1c0.3-0.1,0.4-0.4,0.4-0.8c0.1-0.6,0.1-1.7,0.1-3V51c0-0.1,0-0.1-0.1-0.1h-5.4c0,0-0.1,0-0.1,0.1v1.2
		c0,1.3,0,2.4,0.1,3c0,0.4,0.1,0.7,0.6,0.8c0.2,0,0.5,0.1,0.7,0.1c0.2,0,0.2,0,0.2,0.1c0,0.1-0.1,0.1-0.3,0.1c-0.9,0-1.8,0-2.2,0
		c-0.3,0-1.2,0-1.8,0c-0.2,0-0.3,0-0.3-0.1c0-0.1,0.1-0.1,0.2-0.1c0.2,0,0.4,0,0.5-0.1c0.3-0.1,0.4-0.4,0.4-0.8
		c0.1-0.6,0.1-1.7,0.1-3v-2.5c0-2.2,0-2.5,0-3c0-0.5-0.1-0.7-0.6-0.8c-0.1,0-0.4,0-0.6,0c-0.2,0-0.2,0-0.2-0.1s0.1-0.1,0.3-0.1
		c0.8,0,1.7,0,2,0c0.3,0,1.2,0,1.8,0c0.2,0,0.3,0,0.3,0.1s-0.1,0.1-0.3,0.1c-0.1,0-0.2,0-0.4,0c-0.4,0.1-0.5,0.3-0.5,0.8
		c0,0.5,0,0.8,0,3V50c0,0.1,0,0.1,0.1,0.1C88.6,50.1,94,50.1,94,50.1z"/>
	<path class="st0" d="M101.2,49.7c0-2.2,0-2.6,0-3c0-0.5-0.1-0.7-0.6-0.8c-0.1,0-0.4,0-0.6,0c-0.2,0-0.2,0-0.2-0.1
		c0-0.1,0.1-0.1,0.3-0.1c0.8,0,1.6,0,2,0c0.5,0,3.3,0,3.5,0c0.3,0,0.5-0.1,0.6-0.1c0.1,0,0.2-0.1,0.2-0.1c0.1,0,0.1,0.1,0.1,0.1
		c0,0.1-0.1,0.3-0.1,0.9c0,0.1,0,0.8-0.1,0.9c0,0.1,0,0.2-0.1,0.2s-0.1-0.1-0.1-0.2c0-0.1,0-0.3-0.1-0.5c-0.1-0.3-0.2-0.4-0.9-0.5
		c-0.2,0-1.7-0.1-2-0.1c-0.1,0-0.1,0-0.1,0.1v3.6c0,0.1,0,0.2,0.1,0.2c0.3,0,1.9,0,2.3,0c0.3,0,0.6-0.1,0.7-0.2
		c0.1-0.1,0.2-0.2,0.2-0.2c0.1,0,0.1,0,0.1,0.1c0,0.1-0.1,0.3-0.1,1c0,0.3-0.1,0.8-0.1,0.9c0,0.1,0,0.3-0.1,0.3
		c-0.1,0-0.1-0.1-0.1-0.1c0-0.1,0-0.3-0.1-0.5c-0.1-0.3-0.3-0.5-0.8-0.6c-0.3,0-1.7,0-2,0c-0.1,0-0.1,0.1-0.1,0.1v1.1
		c0,0.5,0,1.8,0,2.2c0,1,0.3,1.2,1.7,1.2c0.4,0,1,0,1.3-0.2c0.4-0.2,0.5-0.5,0.6-1c0-0.2,0.1-0.2,0.2-0.2c0.1,0,0.1,0.1,0.1,0.3
		c0,0.3-0.1,1.3-0.2,1.6c-0.1,0.4-0.2,0.4-0.8,0.4c-2.1,0-3.1-0.1-3.9-0.1c-0.3,0-1.2,0-1.8,0c-0.2,0-0.3,0-0.3-0.1
		c0-0.1,0.1-0.1,0.2-0.1c0.2,0,0.4,0,0.5-0.1c0.3-0.1,0.4-0.4,0.4-0.8c0.1-0.6,0.1-1.7,0.1-3C101.2,52.2,101.2,49.7,101.2,49.7z"/>
	<path class="st0" d="M116.1,55c-1.4-1.2-1.8-2.8-1.8-4.2c0-1,0.3-2.6,1.7-3.9c1-0.9,2.4-1.5,4.5-1.5c0.9,0,1.4,0.1,2.1,0.1
		c0.5,0.1,1,0.2,1.4,0.2c0.2,0,0.2,0.1,0.2,0.2c0,0.1,0,0.3-0.1,0.8c0,0.5,0,1.2,0,1.5c0,0.2,0,0.3-0.2,0.3c-0.1,0-0.1-0.1-0.1-0.3
		c0-0.4-0.2-0.9-0.6-1.3c-0.5-0.5-1.6-0.9-2.9-0.9c-1.2,0-2,0.3-2.7,0.9c-1,0.9-1.3,2.3-1.3,3.7c0,3.4,2.6,5,4.5,5
		c1.3,0,2-0.1,2.6-0.8c0.2-0.3,0.4-0.7,0.5-0.9c0-0.2,0.1-0.3,0.2-0.3c0.1,0,0.1,0.1,0.1,0.2c0,0.2-0.2,1.4-0.3,1.9
		c-0.1,0.2-0.1,0.3-0.4,0.4c-0.6,0.2-1.6,0.3-2.6,0.3C119,56.5,117.4,56.1,116.1,55"/>
	<path class="st0" d="M127.9,49.7c0-2.2,0-2.6,0-3c0-0.5-0.2-0.7-0.5-0.8c-0.2,0-0.3-0.1-0.5-0.1c-0.1,0-0.2,0-0.2-0.1
		c0-0.1,0.1-0.1,0.3-0.1c0.5,0,1.4,0,1.8,0c0.4,0,1.2,0,1.7,0c0.2,0,0.3,0,0.3,0.1c0,0.1-0.1,0.1-0.2,0.1c-0.1,0-0.3,0-0.4,0
		c-0.4,0.1-0.5,0.3-0.5,0.8c0,0.5,0,0.8,0,3v2.5c0,1.4,0,2.5,0.1,3.1c0,0.4,0.1,0.6,0.6,0.7c0.2,0,0.5,0.1,0.7,0.1
		c0.2,0,0.2,0,0.2,0.1c0,0.1-0.1,0.1-0.3,0.1c-0.9,0-1.8,0-2.2,0c-0.3,0-1.2,0-1.8,0c-0.2,0-0.3,0-0.3-0.1c0-0.1,0.1-0.1,0.2-0.1
		c0.2,0,0.4,0,0.5-0.1c0.3-0.1,0.4-0.3,0.4-0.7c0.1-0.6,0.1-1.7,0.1-3.1V49.7z"/>
	<path class="st0" d="M136.9,46.4l-2.1,0.1c-0.8,0-1.2,0.1-1.4,0.4c-0.1,0.2-0.2,0.4-0.2,0.5c0,0.1-0.1,0.2-0.2,0.2
		c-0.1,0-0.1-0.1-0.1-0.2c0-0.2,0.3-1.5,0.3-1.6c0-0.2,0.1-0.3,0.2-0.3c0.1,0,0.3,0.1,0.6,0.2c0.4,0,0.9,0.1,1.4,0.1h5.6
		c0.5,0,0.8,0,1-0.1c0.2,0,0.3-0.1,0.4-0.1c0.1,0,0.1,0.1,0.1,0.3c0,0.3,0,1.3,0,1.6c0,0.1,0,0.2-0.1,0.2c-0.1,0-0.1-0.1-0.2-0.3
		l0-0.2c0-0.4-0.4-0.8-1.7-0.8l-1.8,0v5.8c0,1.3,0,2.4,0.1,3c0,0.4,0.1,0.7,0.6,0.8c0.2,0,0.5,0.1,0.7,0.1c0.2,0,0.2,0,0.2,0.1
		c0,0.1-0.1,0.1-0.3,0.1c-0.9,0-1.8,0-2.2,0c-0.3,0-1.2,0-1.8,0c-0.2,0-0.3,0-0.3-0.1c0-0.1,0.1-0.1,0.2-0.1c0.2,0,0.4,0,0.5-0.1
		c0.3-0.1,0.4-0.4,0.4-0.8c0.1-0.6,0.1-1.7,0.1-3L136.9,46.4L136.9,46.4z"/>
	<path class="st0" d="M147.5,52.7c0-0.8-0.1-1.1-0.3-1.5c-0.1-0.2-2-3.3-2.5-4.1c-0.4-0.5-0.7-0.9-1-1c-0.2-0.1-0.4-0.2-0.6-0.2
		c-0.1,0-0.2,0-0.2-0.1c0-0.1,0.1-0.1,0.3-0.1c0.3,0,1.3,0,1.8,0c0.3,0,0.9,0,1.5,0c0.1,0,0.2,0,0.2,0.1s-0.1,0.1-0.3,0.2
		c-0.1,0-0.2,0.1-0.2,0.3c0,0.1,0.1,0.3,0.2,0.5c0.2,0.4,2.2,3.8,2.4,4.2c0.1-0.3,1.9-3.5,2.1-3.9c0.1-0.3,0.2-0.6,0.2-0.7
		c0-0.1-0.1-0.3-0.3-0.4c-0.1,0-0.3-0.1-0.3-0.1c0-0.1,0.1-0.1,0.2-0.1c0.5,0,0.9,0,1.3,0c0.3,0,1.2,0,1.5,0c0.2,0,0.3,0,0.3,0.1
		c0,0.1-0.1,0.1-0.3,0.1c-0.1,0-0.4,0.1-0.6,0.2c-0.3,0.1-0.5,0.3-0.8,0.7c-0.5,0.6-2.4,3.9-2.7,4.5c-0.2,0.5-0.2,0.9-0.2,1.4v1.2
		c0,0.2,0,0.8,0,1.4c0,0.4,0.2,0.7,0.6,0.8c0.2,0,0.5,0.1,0.7,0.1c0.2,0,0.2,0,0.2,0.1c0,0.1-0.1,0.1-0.3,0.1c-0.9,0-1.8,0-2.2,0
		c-0.4,0-1.2,0-1.8,0c-0.2,0-0.3,0-0.3-0.1c0-0.1,0.1-0.1,0.2-0.1c0.2,0,0.4,0,0.5-0.1c0.3-0.1,0.4-0.4,0.4-0.8c0-0.6,0-1.2,0-1.4
		L147.5,52.7L147.5,52.7L147.5,52.7z"/>
	<path class="st0" d="M159.5,51c0-2.4,1.6-5.6,5.8-5.6c3.5,0,5.7,2.1,5.7,5.3c0,3.2-2.3,5.8-5.9,5.8C161.2,56.5,159.5,53.5,159.5,51
		 M169.1,51.2c0-3.2-1.8-5.1-4.2-5.1c-1.6,0-3.5,0.9-3.5,4.4c0,2.9,1.6,5.3,4.4,5.3C166.8,55.8,169.1,55.3,169.1,51.2"/>
	<path class="st0" d="M176.6,52.2c0,1.4,0,2.4,0.1,3c0,0.4,0.1,0.7,0.6,0.8c0.2,0,0.5,0.1,0.7,0.1c0.2,0,0.2,0,0.2,0.1
		c0,0.1-0.1,0.1-0.3,0.1c-0.9,0-1.8,0-2.2,0c-0.4,0-1.3,0-1.8,0c-0.2,0-0.3,0-0.3-0.1c0-0.1,0.1-0.1,0.2-0.1c0.2,0,0.4,0,0.5-0.1
		c0.3-0.1,0.4-0.4,0.4-0.8c0.1-0.6,0.1-1.7,0.1-3v-2.5c0-2.2,0-2.6,0-3c0-0.5-0.1-0.7-0.6-0.8c-0.1,0-0.4,0-0.6,0
		c-0.1,0-0.2,0-0.2-0.1c0-0.1,0.1-0.1,0.3-0.1c0.7,0,1.6,0,2,0c0.5,0,3.4,0,3.7,0c0.3,0,0.4,0,0.6-0.1c0.1,0,0.2-0.1,0.2-0.1
		c0.1,0,0.1,0.1,0.1,0.1c0,0.1-0.1,0.3-0.1,0.6c0,0.1,0,1-0.1,1.1c0,0.1,0,0.2-0.1,0.2c-0.1,0-0.1-0.1-0.1-0.2c0-0.1,0-0.3-0.1-0.5
		c-0.1-0.2-0.4-0.4-0.9-0.4l-2.2,0c-0.1,0-0.1,0-0.1,0.2v3.5c0,0.1,0,0.1,0.1,0.1l1.8,0c0.2,0,0.4,0,0.6,0c0.3,0,0.5-0.1,0.6-0.3
		c0.1-0.1,0.1-0.1,0.2-0.1c0.1,0,0.1,0,0.1,0.1s-0.1,0.4-0.1,0.9c0,0.3-0.1,0.9-0.1,1c0,0.1,0,0.3-0.1,0.3c-0.1,0-0.1-0.1-0.1-0.2
		c0-0.1,0-0.3-0.1-0.4c-0.1-0.2-0.3-0.5-0.7-0.5c-0.4,0-1.9,0-2.1,0c-0.1,0-0.1,0-0.1,0.1L176.6,52.2L176.6,52.2z"/>
	<path class="st0" d="M190.1,54.4c0,1.1,0.2,1.5,0.5,1.6c0.2,0.1,0.5,0.1,0.7,0.1c0.2,0,0.2,0,0.2,0.1c0,0.1-0.1,0.1-0.3,0.1
		c-0.9,0-1.5,0-1.8,0c-0.1,0-0.8,0-1.5,0c-0.2,0-0.3,0-0.3-0.1c0-0.1,0.1-0.1,0.2-0.1c0.2,0,0.4,0,0.6-0.1c0.4-0.1,0.4-0.5,0.4-1.8
		l0.1-8.4c0-0.3,0-0.5,0.2-0.5c0.2,0,0.3,0.2,0.5,0.4c0.2,0.2,2.3,2.5,4.4,4.5c1,1,2.9,3,3.1,3.2h0.1l-0.1-6.4
		c0-0.9-0.1-1.1-0.5-1.3c-0.2-0.1-0.6-0.1-0.8-0.1c-0.2,0-0.2,0-0.2-0.1c0-0.1,0.2-0.1,0.4-0.1c0.7,0,1.4,0,1.7,0c0.2,0,0.7,0,1.4,0
		c0.2,0,0.3,0,0.3,0.1c0,0.1-0.1,0.1-0.3,0.1c-0.1,0-0.3,0-0.4,0c-0.4,0.1-0.5,0.4-0.5,1.2l-0.2,8.9c0,0.3-0.1,0.4-0.2,0.4
		c-0.2,0-0.3-0.2-0.5-0.3c-0.9-0.8-2.7-2.7-4.2-4.2c-1.5-1.5-3.1-3.3-3.4-3.6h0L190.1,54.4L190.1,54.4z"/>
	<path class="st0" d="M203.4,49.7c0-2.2,0-2.6,0-3c0-0.5-0.1-0.7-0.6-0.8c-0.1,0-0.4,0-0.6,0c-0.2,0-0.2,0-0.2-0.1
		c0-0.1,0.1-0.1,0.3-0.1c0.8,0,1.6,0,2,0c0.5,0,3.3,0,3.5,0c0.3,0,0.5-0.1,0.6-0.1c0.1,0,0.2-0.1,0.2-0.1c0.1,0,0.1,0.1,0.1,0.1
		c0,0.1-0.1,0.3-0.1,0.9c0,0.1,0,0.8-0.1,0.9c0,0.1,0,0.2-0.1,0.2c-0.1,0-0.1-0.1-0.1-0.2c0-0.1,0-0.3-0.1-0.5
		c-0.1-0.3-0.2-0.4-0.9-0.5c-0.2,0-1.7-0.1-2-0.1c-0.1,0-0.1,0-0.1,0.1v3.6c0,0.1,0,0.2,0.1,0.2c0.3,0,1.9,0,2.3,0
		c0.3,0,0.6-0.1,0.7-0.2c0.1-0.1,0.2-0.2,0.2-0.2c0.1,0,0.1,0,0.1,0.1c0,0.1-0.1,0.3-0.1,1c0,0.3-0.1,0.8-0.1,0.9
		c0,0.1,0,0.3-0.1,0.3c-0.1,0-0.1-0.1-0.1-0.1c0-0.1,0-0.3-0.1-0.5c-0.1-0.3-0.3-0.5-0.8-0.6c-0.3,0-1.7,0-2,0
		c-0.1,0-0.1,0.1-0.1,0.1v1.1c0,0.5,0,1.8,0,2.2c0,1,0.3,1.2,1.7,1.2c0.4,0,1,0,1.3-0.2c0.4-0.2,0.5-0.5,0.6-1
		c0-0.2,0.1-0.2,0.2-0.2c0.1,0,0.1,0.1,0.1,0.3c0,0.3-0.1,1.3-0.2,1.6c-0.1,0.4-0.2,0.4-0.8,0.4c-2.1,0-3.1-0.1-3.9-0.1
		c-0.3,0-1.2,0-1.8,0c-0.2,0-0.3,0-0.3-0.1c0-0.1,0.1-0.1,0.2-0.1c0.2,0,0.4,0,0.5-0.1c0.3-0.1,0.4-0.4,0.4-0.8
		c0.1-0.6,0.1-1.7,0.1-3L203.4,49.7L203.4,49.7L203.4,49.7z"/>
	<path class="st0" d="M211.8,47c-0.2-0.5-0.3-0.9-0.5-1c-0.2-0.1-0.4-0.1-0.6-0.1c-0.1,0-0.2,0-0.2-0.1c0-0.1,0.1-0.1,0.3-0.1
		c0.7,0,1.5,0,1.6,0c0.1,0,0.8,0,1.6,0c0.2,0,0.3,0,0.3,0.1c0,0.1-0.1,0.1-0.3,0.1c-0.1,0-0.3,0-0.4,0.1c-0.1,0.1-0.2,0.2-0.2,0.3
		c0,0.2,0.1,0.7,0.3,1.3c0.2,0.9,1.6,5.2,1.8,6h0l2.7-7.4c0.2-0.4,0.2-0.5,0.4-0.5c0.2,0,0.2,0.2,0.4,0.7l2.9,7.1h0
		c0.3-0.9,1.4-4.7,1.9-6.3c0.1-0.3,0.1-0.6,0.1-0.8c0-0.2-0.1-0.4-0.7-0.4c-0.1,0-0.2,0-0.2-0.1c0-0.1,0.1-0.1,0.3-0.1
		c0.8,0,1.3,0,1.5,0c0.1,0,0.7,0,1.2,0c0.2,0,0.3,0,0.3,0.1c0,0.1-0.1,0.1-0.2,0.1c-0.1,0-0.3,0-0.5,0.1c-0.3,0.1-0.5,0.7-0.8,1.5
		c-0.7,1.8-2.1,6.3-2.8,8.4c-0.2,0.5-0.2,0.7-0.4,0.7c-0.1,0-0.2-0.2-0.4-0.7l-2.9-7.1h0c-0.3,0.7-2.2,5.7-2.8,7
		c-0.3,0.6-0.3,0.8-0.5,0.8c-0.1,0-0.2-0.2-0.3-0.5L211.8,47L211.8,47z"/>
	<path class="st0" d="M235.7,52.7c0-0.8-0.1-1.1-0.3-1.5c-0.1-0.2-2-3.3-2.5-4.1c-0.4-0.5-0.7-0.9-1-1c-0.2-0.1-0.4-0.2-0.6-0.2
		c-0.1,0-0.2,0-0.2-0.1c0-0.1,0.1-0.1,0.3-0.1c0.3,0,1.3,0,1.8,0c0.3,0,0.9,0,1.5,0c0.1,0,0.2,0,0.2,0.1s-0.1,0.1-0.3,0.2
		c-0.1,0-0.2,0.1-0.2,0.3c0,0.1,0.1,0.3,0.2,0.5c0.2,0.4,2.2,3.8,2.4,4.2c0.1-0.3,1.9-3.5,2.1-3.9c0.1-0.3,0.2-0.6,0.2-0.7
		c0-0.1-0.1-0.3-0.3-0.4c-0.1,0-0.3-0.1-0.3-0.1c0-0.1,0.1-0.1,0.2-0.1c0.5,0,0.9,0,1.3,0c0.3,0,1.2,0,1.5,0c0.2,0,0.3,0,0.3,0.1
		c0,0.1-0.1,0.1-0.3,0.1c-0.1,0-0.4,0.1-0.6,0.2c-0.3,0.1-0.5,0.3-0.8,0.7c-0.5,0.6-2.4,3.9-2.7,4.5c-0.2,0.5-0.2,0.9-0.2,1.4v1.2
		c0,0.2,0,0.8,0,1.4c0,0.4,0.2,0.7,0.6,0.8c0.2,0,0.5,0.1,0.7,0.1c0.2,0,0.2,0,0.2,0.1c0,0.1-0.1,0.1-0.3,0.1c-0.9,0-1.8,0-2.2,0
		c-0.4,0-1.2,0-1.8,0c-0.2,0-0.3,0-0.3-0.1c0-0.1,0.1-0.1,0.2-0.1c0.2,0,0.4,0,0.5-0.1c0.3-0.1,0.4-0.4,0.4-0.8c0-0.6,0-1.2,0-1.4
		L235.7,52.7L235.7,52.7L235.7,52.7z"/>
	<path class="st0" d="M242.5,51c0-2.4,1.6-5.6,5.8-5.6c3.5,0,5.7,2.1,5.7,5.3c0,3.2-2.3,5.8-5.9,5.8C244.2,56.5,242.5,53.5,242.5,51
		 M252.1,51.2c0-3.2-1.8-5.1-4.1-5.1c-1.6,0-3.5,0.9-3.5,4.4c0,2.9,1.6,5.3,4.4,5.3C249.8,55.8,252.1,55.3,252.1,51.2"/>
	<path class="st0" d="M257.8,49.7c0-2.2,0-2.6,0-3c0-0.5-0.1-0.7-0.6-0.8c-0.1,0-0.4,0-0.6,0c-0.2,0-0.2,0-0.2-0.1s0.1-0.1,0.3-0.1
		c0.8,0,1.6,0,1.9,0c0.5,0,1.6,0,2,0c0.9,0,1.8,0.1,2.6,0.6c0.4,0.3,1,1,1,1.9c0,1-0.4,2-1.9,3.2c1.3,1.6,2.2,2.8,3.1,3.7
		c0.8,0.8,1.4,0.9,1.6,1c0.2,0,0.3,0,0.4,0c0.1,0,0.2,0,0.2,0.1c0,0.1-0.1,0.1-0.3,0.1h-1.3c-0.8,0-1.1-0.1-1.5-0.3
		c-0.6-0.3-1.1-1-1.9-2.1c-0.6-0.8-1.2-1.7-1.4-2c-0.1-0.1-0.2-0.1-0.3-0.1l-1.2,0c-0.1,0-0.1,0-0.1,0.1v0.2c0,1.3,0,2.4,0.1,3
		c0,0.4,0.1,0.7,0.6,0.8c0.2,0,0.5,0.1,0.7,0.1c0.1,0,0.2,0,0.2,0.1c0,0.1-0.1,0.1-0.3,0.1c-0.8,0-1.9,0-2.1,0c-0.3,0-1.2,0-1.7,0
		c-0.2,0-0.3,0-0.3-0.1c0-0.1,0.1-0.1,0.2-0.1c0.2,0,0.4,0,0.5-0.1c0.3-0.1,0.4-0.4,0.4-0.8c0.1-0.6,0.1-1.7,0.1-3L257.8,49.7
		L257.8,49.7z M259.5,50.8c0,0.2,0,0.2,0.1,0.3c0.3,0.1,0.7,0.1,1.1,0.1c0.6,0,0.8-0.1,1-0.2c0.4-0.3,0.8-1,0.8-2.1
		c0-2-1.3-2.6-2.2-2.6c-0.4,0-0.6,0-0.8,0.1c-0.1,0-0.1,0.1-0.1,0.2V50.8z"/>
	<path class="st0" d="M270.9,50.3L270.9,50.3c0.6-0.5,2.6-2.6,3-3.1c0.4-0.5,0.7-0.8,0.7-1.1c0-0.2-0.1-0.3-0.2-0.3
		c-0.1,0-0.2-0.1-0.2-0.1c0-0.1,0.1-0.1,0.2-0.1c0.3,0,1.1,0,1.5,0c0.4,0,1.2,0,1.7,0c0.1,0,0.2,0,0.2,0.1c0,0.1-0.1,0.1-0.2,0.1
		c-0.2,0-0.6,0.1-0.8,0.2c-0.4,0.2-0.9,0.5-1.5,1.1c-0.4,0.4-2.6,2.5-3.1,3.1c0.5,0.7,3.3,3.7,3.8,4.2c0.6,0.6,1.3,1.2,2,1.5
		c0.4,0.2,0.7,0.2,0.9,0.2c0.1,0,0.2,0,0.2,0.1c0,0.1-0.1,0.1-0.3,0.1h-1.2c-0.4,0-0.7,0-1,0c-0.8-0.1-1.1-0.4-1.8-0.9
		c-0.6-0.6-3.4-3.8-3.7-4.2l-0.2-0.2h-0.1v1.3c0,1.3,0,2.4,0,3c0,0.4,0.2,0.7,0.5,0.8c0.2,0,0.5,0.1,0.7,0.1c0.1,0,0.2,0,0.2,0.1
		c0,0.1-0.1,0.1-0.3,0.1c-0.8,0-1.7,0-2,0c-0.3,0-1.2,0-1.8,0c-0.2,0-0.3,0-0.3-0.1c0-0.1,0.1-0.1,0.2-0.1c0.2,0,0.4,0,0.5-0.1
		c0.3-0.1,0.4-0.4,0.4-0.8c0.1-0.6,0.1-1.7,0.1-3v-2.5c0-2.2,0-2.6,0-3c0-0.5-0.1-0.7-0.6-0.8c-0.1,0-0.4,0-0.6,0
		c-0.2,0-0.2,0-0.2-0.1s0.1-0.1,0.3-0.1c0.8,0,1.6,0,2,0c0.3,0,1.2,0,1.7,0c0.2,0,0.3,0,0.3,0.1s-0.1,0.1-0.2,0.1
		c-0.1,0-0.2,0-0.4,0c-0.4,0.1-0.5,0.3-0.5,0.8c0,0.5,0,0.9,0,3L270.9,50.3L270.9,50.3L270.9,50.3z"/>
	<path class="st0" d="M36.7,16c-0.4-2.1-2-3.5-4-3.6C29.1,12,26,14,22.4,14.6c-0.3,0-0.7-0.6-1-0.9c1.6-1.2,1.4-3.6-0.5-4.7
		c-0.1-0.1-0.1-1.5,0-1.6c0.2-0.1,1.4,0.1,1.5,0c0.2-0.1,0.1-1.6,0-1.7c-0.1-0.1-1.5,0-1.5-0.1c-0.1-0.1,0-1.4-0.1-1.5
		C20.8,4,20.4,4,20.2,4c-0.2,0-0.6,0-0.7,0.1c-0.1,0.1,0,1.4-0.1,1.5c-0.1,0.1-1.4-0.1-1.5,0.1c-0.1,0.1-0.1,1.6,0,1.7
		c0.2,0.1,1.4-0.1,1.5,0c0.1,0.1,0.1,1.4,0,1.6c-1.9,1-2.1,3.4-0.5,4.7c-0.3,0.3-0.7,0.9-1,0.9C14.4,14,11.3,12,7.7,12.3
		c-2,0.2-3.7,1.6-4,3.6c-0.6,3.7,2,6.5,3.3,9.7c0.4,1,0.8,2.3,0.7,3.5c0,0,10.5,0,12.4,0h0.1h0.1c1.9,0,12.4,0,12.4,0
		c-0.1-1.1,0.3-2.5,0.7-3.5C34.7,22.5,37.4,19.7,36.7,16 M18.7,24.2c-0.3,1.9-1.4,3-2.2,3c-0.6,0-1-0.2-1.4-0.6
		c-0.6-0.5-1-1.3-0.9-1.8c0.1-0.2,1.6,0.1,1.8-0.1c0.1-0.1-0.2-1.3-0.4-1.5c-0.2-0.2-1.5,0.1-1.7-0.1c-0.2-0.2-0.4-1.6-0.5-1.7
		c0,0-1.5-0.2-1.6,0c-0.1,0.2,0.5,1.4,0.4,1.6c-0.1,0.2-2-0.2-2.1,0c0,0.2,0.1,1.3,0.3,1.5c0.2,0.2,2,0.2,2,0.2
		c0.4,0.3,0.5,0.9,0.5,1.5c0,0.8-0.6,1.1-1.5,0.9c-1.7-0.5-3.9-4.3-5.2-6.9c-0.9-1.9-1.5-5.1,1-6c1.5-0.6,3.1-0.2,4.7,0.2
		c1.7,0.5,3.9,1.2,5.2,2c0.3,0.2-0.4,0,0.8,2.6C18.4,20.3,18.9,22.9,18.7,24.2 M29.1,27.1c-0.9,0.3-1.5-0.1-1.5-0.9
		c0-0.6,0.1-1.2,0.5-1.5c0,0,1.8,0,2-0.2s0.3-1.2,0.3-1.5c0-0.2-2,0.2-2.1,0c-0.1-0.2,0.5-1.4,0.4-1.6c-0.1-0.2-1.6,0-1.6,0
		c-0.2,0.1-0.4,1.6-0.5,1.7c-0.2,0.1-1.6-0.1-1.7,0.1c-0.2,0.2-0.5,1.3-0.4,1.5c0.1,0.2,1.6-0.1,1.8,0.1c0.1,0.5-0.3,1.3-0.9,1.8
		c-0.4,0.4-0.9,0.6-1.4,0.6c-0.9,0-1.9-1.2-2.2-3c-0.2-1.3,0.3-3.9,0.9-5.1c1.2-2.6,0.5-2.4,0.8-2.6c1.3-0.8,3.6-1.5,5.2-2
		c1.6-0.5,3.2-0.8,4.7-0.2c2.5,0.9,1.9,4.1,1,6C33,22.8,30.8,26.6,29.1,27.1"/>
	<polygon class="st0" points="33,33 33,30.8 20.3,30.8 20,30.8 7.4,30.8 7.4,33 20,33 20.3,33 	"/>
</g>
</svg>
