<?xml version="1.0" encoding="UTF-8" standalone="no" ?>
<!DOCTYPE svg PUBLIC "-//W3C//DTD SVG 1.1//EN" "http://www.w3.org/Graphics/SVG/1.1/DTD/svg11.dtd">
<svg xmlns="http://www.w3.org/2000/svg" xmlns:xlink="http://www.w3.org/1999/xlink" version="1.1" width="1200" height="628" viewBox="0 0 1200 628" xml:space="preserve">
<desc>Created with Fabric.js 5.2.4</desc>
<defs>
</defs>
<g transform="matrix(1 0 0 1 600 314)" id="14366e47-d032-4ada-b48f-b03e6a07ce14"  >
<rect style="stroke: none; stroke-width: 1; stroke-dasharray: none; stroke-linecap: butt; stroke-dashoffset: 0; stroke-linejoin: miter; stroke-miterlimit: 4; fill: rgb(255,255,255); fill-rule: nonzero; opacity: 1; visibility: hidden;" vector-effect="non-scaling-stroke"  x="-600" y="-314" rx="0" ry="0" width="1200" height="628" />
</g>
<g transform="matrix(Infinity NaN NaN Infinity 0 0)" id="42f7b16c-b565-4d0a-affa-97cba72e34f1"  >
</g>
<g transform="matrix(3.29 0 0 3.29 605 315.72)"  >
<g style="" vector-effect="non-scaling-stroke"   >
		<g transform="matrix(1 0 0 1 -116 0)"  >
<path style="stroke: none; stroke-width: 1; stroke-dasharray: none; stroke-linecap: butt; stroke-dashoffset: 0; stroke-linejoin: miter; stroke-miterlimit: 4; fill: rgb(255,255,255); fill-rule: nonzero; opacity: 1;" vector-effect="non-scaling-stroke"  transform=" translate(-183.59, -300)" d="M 123.15 239.57 L 123.15 307.62 C 123.15 322.21 129.06 335.41 138.62 344.97 C 148.18 354.53000000000003 161.38 360.44000000000005 175.97 360.44000000000005 L 191.21 360.44000000000005 C 205.8 360.44000000000005 218.98000000000002 354.53000000000003 228.55 344.97 C 238.11 335.41 244.02 322.21000000000004 244.02 307.62 L 244.02 239.57 L 123.15 239.57 z M 181.6 356.44 L 175.98 356.44 C 162.5 356.44 150.28 350.98 141.45999999999998 342.13 C 132.62999999999997 333.3 127.14999999999998 321.09 127.14999999999998 307.61 L 127.14999999999998 300.2 L 181.59999999999997 300.2 L 181.59999999999997 356.44 z M 181.6 296.22 L 127.14999999999999 296.22 L 127.14999999999999 243.56000000000003 L 181.6 243.56000000000003 L 181.6 296.22 z M 240.03 307.61 C 240.03 321.09000000000003 234.59 333.31 225.74 342.13 C 216.89000000000001 350.98 204.68 356.44 191.22 356.44 L 185.6 356.44 L 185.6 300.2 L 240.04 300.2 L 240.04 307.61 z M 240.03 296.22 L 185.59 296.22 L 185.59 243.56000000000003 L 240.03 243.56000000000003 L 240.03 296.22 z" stroke-linecap="round" />
</g>
		<g transform="matrix(1 0 0 1 -134.64 28.31)"  >
<polygon style="stroke: none; stroke-width: 1; stroke-dasharray: none; stroke-linecap: butt; stroke-dashoffset: 0; stroke-linejoin: miter; stroke-miterlimit: 4; fill: rgb(255,255,255); fill-rule: nonzero; opacity: 1;" vector-effect="non-scaling-stroke"  points="10.55,21.69 10.55,-21.69 -10.54,14.91 2.06,10.54 " />
</g>
		<g transform="matrix(1 0 0 1 -145.22 17.47)"  >
<polygon style="stroke: none; stroke-width: 1; stroke-dasharray: none; stroke-linecap: butt; stroke-dashoffset: 0; stroke-linejoin: miter; stroke-miterlimit: 4; fill: rgb(255,255,255); fill-rule: nonzero; opacity: 1;" vector-effect="non-scaling-stroke"  points="-16.46,10.84 21.12,-10.84 -21.12,-10.81 -11.04,-2.08 " />
</g>
		<g transform="matrix(1 0 0 1 -145.21 -30.13)"  >
<path style="stroke: none; stroke-width: 1; stroke-dasharray: none; stroke-linecap: butt; stroke-dashoffset: 0; stroke-linejoin: miter; stroke-miterlimit: 4; fill: rgb(255,255,255); fill-rule: nonzero; opacity: 1;" vector-effect="non-scaling-stroke"  transform=" translate(-154.38, -269.88)" d="M 163.7 282.17 C 161.45 284.13 158.32999999999998 285.11 154.35999999999999 285.11 C 150.32999999999998 285.11 147.2 284.14 144.98999999999998 282.19 C 142.77999999999997 280.24 141.67 277.24 141.67 273.18 L 141.67 254.66 L 148.22 254.66 L 148.22 273.18 C 148.22 273.99 148.29 274.78000000000003 148.43 275.56 C 148.57 276.34 148.86 277.03000000000003 149.31 277.62 C 149.75 278.22 150.37 278.7 151.17000000000002 279.08 C 151.96 279.46 153.02 279.64 154.36 279.64 C 156.70000000000002 279.64 158.31 279.12 159.20000000000002 278.07 C 160.09 277.03 160.53000000000003 275.39 160.53000000000003 273.17 L 160.53000000000003 254.65 L 167.08000000000004 254.65 L 167.08000000000004 273.17 C 167.07 277.22 165.95 280.22 163.7 282.17 z" stroke-linecap="round" />
</g>
		<g transform="matrix(1 0 0 1 -90.28 24.25)"  >
<path style="stroke: none; stroke-width: 1; stroke-dasharray: none; stroke-linecap: butt; stroke-dashoffset: 0; stroke-linejoin: miter; stroke-miterlimit: 4; fill: rgb(255,255,255); fill-rule: nonzero; opacity: 1;" vector-effect="non-scaling-stroke"  transform=" translate(-209.3, -324.26)" d="M 215.69 317.47 C 215.31 316.86 214.82999999999998 316.32000000000005 214.26 315.86 C 213.69 315.40000000000003 213.04 315.04 212.32 314.78000000000003 C 211.6 314.52000000000004 210.85 314.39000000000004 210.06 314.39000000000004 C 208.62 314.39000000000004 207.4 314.67 206.39000000000001 315.23 C 205.38000000000002 315.79 204.57000000000002 316.54 203.94000000000003 317.47 C 203.31000000000003 318.41 202.86 319.47 202.57000000000002 320.67 C 202.28000000000003 321.86 202.14000000000001 323.1 202.14000000000001 324.38 C 202.14000000000001 325.6 202.28 326.79 202.57000000000002 327.95 C 202.86 329.11 203.31000000000003 330.15 203.94000000000003 331.07 C 204.56000000000003 332 205.38000000000002 332.74 206.39000000000001 333.29 C 207.4 333.85 208.62 334.13 210.06 334.13 C 212.02 334.13 213.55 333.53 214.64000000000001 332.34 C 215.74 331.15 216.41000000000003 329.57 216.66000000000003 327.60999999999996 L 222.85000000000002 327.60999999999996 C 222.69000000000003 329.42999999999995 222.27 331.06999999999994 221.59000000000003 332.53999999999996 C 220.91000000000003 334.01 220.01000000000002 335.26 218.90000000000003 336.28999999999996 C 217.79000000000002 337.33 216.48000000000005 338.10999999999996 214.99000000000004 338.65999999999997 C 213.49000000000004 339.2 211.85000000000005 339.47999999999996 210.06000000000003 339.47999999999996 C 207.83000000000004 339.47999999999996 205.83000000000004 339.09 204.05000000000004 338.31999999999994 C 202.27000000000004 337.54999999999995 200.77000000000004 336.47999999999996 199.54000000000005 335.11999999999995 C 198.32000000000005 333.75999999999993 197.38000000000005 332.15999999999997 196.73000000000005 330.3299999999999 C 196.08000000000004 328.49999999999994 195.75000000000006 326.5199999999999 195.75000000000006 324.3999999999999 C 195.75000000000006 322.2299999999999 196.08000000000007 320.2099999999999 196.73000000000005 318.3499999999999 C 197.38000000000005 316.4899999999999 198.32000000000005 314.8699999999999 199.54000000000005 313.4799999999999 C 200.76000000000005 312.0899999999999 202.26000000000005 311.0099999999999 204.05000000000004 310.2199999999999 C 205.83000000000004 309.4299999999999 207.83000000000004 309.0399999999999 210.06000000000003 309.0399999999999 C 211.66000000000003 309.0399999999999 213.18000000000004 309.2699999999999 214.61000000000004 309.7299999999999 C 216.04000000000005 310.1899999999999 217.31000000000003 310.8699999999999 218.44000000000005 311.7499999999999 C 219.57000000000005 312.6299999999999 220.50000000000006 313.7299999999999 221.23000000000005 315.02999999999986 C 221.96000000000004 316.32999999999987 222.42000000000004 317.82999999999987 222.62000000000003 319.5099999999999 L 216.42000000000004 319.5099999999999 C 216.31 318.75 216.07 318.08 215.69 317.47 z" stroke-linecap="round" />
</g>
		<g transform="matrix(1 0 0 1 -86.78 -30.11)"  >
<path style="stroke: none; stroke-width: 1; stroke-dasharray: none; stroke-linecap: butt; stroke-dashoffset: 0; stroke-linejoin: miter; stroke-miterlimit: 4; fill: rgb(255,255,255); fill-rule: nonzero; opacity: 1;" vector-effect="non-scaling-stroke"  transform=" translate(-212.81, -269.89)" d="M 193.71 289.27 C 193.28 289.7 193.71 269.59 193.71 269.59 L 212.8 250.49999999999997 L 232.10000000000002 269.79999999999995 L 232.10000000000002 289.28999999999996 L 212.76000000000002 269.95 L 193.71 289.27 z" stroke-linecap="round" />
</g>
		<g transform="matrix(1 0 0 1 -17.26 -25.79)"  >
<path style="stroke: none; stroke-width: 1; stroke-dasharray: none; stroke-linecap: butt; stroke-dashoffset: 0; stroke-linejoin: miter; stroke-miterlimit: 4; fill: rgb(255,255,255); fill-rule: nonzero; opacity: 1;" vector-effect="non-scaling-stroke"  transform=" translate(-282.33, -274.21)" d="M 291.47 285.67 C 289.35 287.74 286.3 288.77000000000004 282.33000000000004 288.77000000000004 C 278.36 288.77000000000004 275.31000000000006 287.73 273.19000000000005 285.65000000000003 C 271.07000000000005 283.57000000000005 270.01000000000005 280.61 270.01000000000005 276.78000000000003 L 270.01000000000005 259.65000000000003 L 276.13000000000005 259.65000000000003 L 276.13000000000005 276.08000000000004 C 276.13000000000005 278.38000000000005 276.66 280.14000000000004 277.71000000000004 281.36 C 278.76000000000005 282.58000000000004 280.3 283.19 282.33000000000004 283.19 C 284.33000000000004 283.19 285.86 282.58 286.93000000000006 281.36 C 288.00000000000006 280.14 288.5300000000001 278.38 288.5300000000001 276.08000000000004 L 288.5300000000001 259.65000000000003 L 294.6500000000001 259.65000000000003 L 294.6500000000001 276.78000000000003 C 294.65 280.64 293.59 283.61 291.47 285.67 z" stroke-linecap="round" />
</g>
		<g transform="matrix(1 0 0 1 13.1 -26.08)"  >
<path style="stroke: none; stroke-width: 1; stroke-dasharray: none; stroke-linecap: butt; stroke-dashoffset: 0; stroke-linejoin: miter; stroke-miterlimit: 4; fill: rgb(255,255,255); fill-rule: nonzero; opacity: 1;" vector-effect="non-scaling-stroke"  transform=" translate(-312.69, -273.92)" d="M 300.24 288.2 L 300.24 259.65 L 306.36 259.65 L 319.22 278.84 L 319.22 259.65 L 325.14000000000004 259.65 L 325.14000000000004 288.2 L 318.98 288.2 L 306.16 269.06 L 306.16 288.2 L 300.24 288.2 z" stroke-linecap="round" />
</g>
		<g transform="matrix(1 0 0 1 34.6 -26.08)"  >
<path style="stroke: none; stroke-width: 1; stroke-dasharray: none; stroke-linecap: butt; stroke-dashoffset: 0; stroke-linejoin: miter; stroke-miterlimit: 4; fill: rgb(255,255,255); fill-rule: nonzero; opacity: 1;" vector-effect="non-scaling-stroke"  transform=" translate(-334.19, -273.92)" d="M 331.13 288.2 L 331.13 259.65 L 337.25 259.65 L 337.25 288.2 L 331.13 288.2 z" stroke-linecap="round" />
</g>
		<g transform="matrix(1 0 0 1 56.03 -26.08)"  >
<path style="stroke: none; stroke-width: 1; stroke-dasharray: none; stroke-linecap: butt; stroke-dashoffset: 0; stroke-linejoin: miter; stroke-miterlimit: 4; fill: rgb(255,255,255); fill-rule: nonzero; opacity: 1;" vector-effect="non-scaling-stroke"  transform=" translate(-355.62, -273.93)" d="M 355.86 288.78 C 351.72 288.78 348.34000000000003 287.4 345.71000000000004 284.65 C 343.08000000000004 281.9 341.77000000000004 278.33 341.77000000000004 273.95 C 341.77000000000004 269.65 343.12000000000006 266.09999999999997 345.82000000000005 263.28999999999996 C 348.52000000000004 260.47999999999996 351.95000000000005 259.08 356.11000000000007 259.08 C 359.5900000000001 259.08 362.45000000000005 260.06 364.70000000000005 262.02 C 366.95000000000005 263.97999999999996 368.47 266.76 369.26000000000005 270.38 L 363.22 271.94 C 362.07000000000005 267.09 359.62 264.67 355.87 264.67 C 353.62 264.67 351.78000000000003 265.53000000000003 350.34000000000003 267.26 C 348.90000000000003 268.99 348.18 271.21999999999997 348.18 273.96 C 348.18 276.7 348.91 278.91999999999996 350.36 280.64 C 351.81 282.34999999999997 353.69 283.21 355.99 283.21 C 359.69 283.21 362.07 281.25 363.14 277.34 L 369.46999999999997 278.36999999999995 C 367.65 285.3 363.12 288.78 355.86 288.78 z" stroke-linecap="round" />
</g>
		<g transform="matrix(1 0 0 1 86.13 -26)"  >
<path style="stroke: none; stroke-width: 1; stroke-dasharray: none; stroke-linecap: butt; stroke-dashoffset: 0; stroke-linejoin: miter; stroke-miterlimit: 4; fill: rgb(255,255,255); fill-rule: nonzero; opacity: 1;" vector-effect="non-scaling-stroke"  transform=" translate(-385.71, -274.01)" d="M 396.74 282.57 C 397.15000000000003 282.57 397.49 282.53 397.77 282.45 L 397.77 288.12 C 397.28 288.28000000000003 396.69 288.37 396 288.37 C 393.4 288.37 391.21 287.75 389.45 286.5 C 387.68 285.25 386.03 282.91 384.5 279.45 L 383.64 277.68 L 379.78 277.68 L 379.78 288.2 L 373.65999999999997 288.2 L 373.65999999999997 259.65 L 386.47999999999996 259.65 C 389.56999999999994 259.65 392.06999999999994 260.46 393.96 262.07 C 395.84999999999997 263.69 396.78999999999996 265.9 396.78999999999996 268.73 C 396.78999999999996 270.89000000000004 396.2 272.67 395.02 274.07 C 393.84 275.46999999999997 392.19 276.38 390.04999999999995 276.82 C 391.22999999999996 279.07 392.34 280.59 393.37999999999994 281.38 C 394.41 282.18 395.53 282.57 396.74 282.57 z M 379.77 264.95 L 379.77 272.43 L 385.81 272.43 C 388.85 272.43 390.37 271.18 390.37 268.69 C 390.37 266.2 388.82 264.95 385.73 264.95 L 379.77 264.95 z" stroke-linecap="round" />
</g>
		<g transform="matrix(1 0 0 1 113.52 -26.08)"  >
<path style="stroke: none; stroke-width: 1; stroke-dasharray: none; stroke-linecap: butt; stroke-dashoffset: 0; stroke-linejoin: miter; stroke-miterlimit: 4; fill: rgb(255,255,255); fill-rule: nonzero; opacity: 1;" vector-effect="non-scaling-stroke"  transform=" translate(-413.1, -273.92)" d="M 420.89 288.2 L 418.51 281.34 L 407.62 281.34 L 405.32 288.2 L 398.90999999999997 288.2 L 409.09999999999997 259.65 L 417.10999999999996 259.65 L 427.29999999999995 288.2 L 420.89 288.2 z M 409.23 276.53 L 416.83000000000004 276.53 L 412.97 265.4 L 409.23 276.53 z" stroke-linecap="round" />
</g>
		<g transform="matrix(1 0 0 1 140.66 -26.08)"  >
<path style="stroke: none; stroke-width: 1; stroke-dasharray: none; stroke-linecap: butt; stroke-dashoffset: 0; stroke-linejoin: miter; stroke-miterlimit: 4; fill: rgb(255,255,255); fill-rule: nonzero; opacity: 1;" vector-effect="non-scaling-stroke"  transform=" translate(-440.25, -273.92)" d="M 430.26 288.2 L 430.26 259.65 L 450.23 259.65 L 450.23 265.23999999999995 L 436.39000000000004 265.23999999999995 L 436.39000000000004 271.84999999999997 L 447.69000000000005 271.84999999999997 L 447.69000000000005 277.43999999999994 L 436.39000000000004 277.43999999999994 L 436.39000000000004 288.19999999999993 L 430.26 288.19999999999993 z" stroke-linecap="round" />
</g>
		<g transform="matrix(1 0 0 1 164.6 -26.08)"  >
<path style="stroke: none; stroke-width: 1; stroke-dasharray: none; stroke-linecap: butt; stroke-dashoffset: 0; stroke-linejoin: miter; stroke-miterlimit: 4; fill: rgb(255,255,255); fill-rule: nonzero; opacity: 1;" vector-effect="non-scaling-stroke"  transform=" translate(-464.19, -273.93)" d="M 461.15 288.2 L 461.15 265.24 L 452.35999999999996 265.24 L 452.35999999999996 259.65000000000003 L 476.02 259.65000000000003 L 476.02 265.24 L 467.27 265.24 L 467.27 288.2 L 461.15 288.2 z" stroke-linecap="round" />
</g>
		<g transform="matrix(1 0 0 1 -17.86 13.36)"  >
<path style="stroke: none; stroke-width: 1; stroke-dasharray: none; stroke-linecap: butt; stroke-dashoffset: 0; stroke-linejoin: miter; stroke-miterlimit: 4; fill: rgb(255,255,255); fill-rule: nonzero; opacity: 1;" vector-effect="non-scaling-stroke"  transform=" translate(-281.73, -313.37)" d="M 270.41 327.64 L 270.41 299.09 L 282.49 299.09 C 285.61 299.09 288.15000000000003 299.92999999999995 290.11 301.59999999999997 C 292.07 303.27 293.05 305.53999999999996 293.05 308.41999999999996 C 293.05 311.29999999999995 292.07 313.56999999999994 290.11 315.23999999999995 C 288.15000000000003 316.90999999999997 285.61 317.74999999999994 282.49 317.74999999999994 L 276.53000000000003 317.74999999999994 L 276.53000000000003 327.6499999999999 L 270.41 327.6499999999999 z M 276.53 312.49 L 281.83 312.49 C 283.39 312.49 284.58 312.13 285.4 311.42 C 286.21999999999997 310.71000000000004 286.63 309.71000000000004 286.63 308.42 C 286.63 307.13 286.21 306.14000000000004 285.38 305.44 C 284.54 304.74 283.33 304.39 281.74 304.39 L 276.52 304.39 L 276.52 312.49 z" stroke-linecap="round" />
</g>
		<g transform="matrix(1 0 0 1 10.71 13.36)"  >
<path style="stroke: none; stroke-width: 1; stroke-dasharray: none; stroke-linecap: butt; stroke-dashoffset: 0; stroke-linejoin: miter; stroke-miterlimit: 4; fill: rgb(255,255,255); fill-rule: nonzero; opacity: 1;" vector-effect="non-scaling-stroke"  transform=" translate(-310.3, -313.37)" d="M 320.82 324.03 C 318.05 326.82 314.55 328.21999999999997 310.3 328.21999999999997 C 306.05 328.21999999999997 302.55 326.82 299.78000000000003 324.03 C 297.01000000000005 321.23999999999995 295.63000000000005 317.69 295.63000000000005 313.39 C 295.63000000000005 309.09 297.01000000000005 305.53999999999996 299.78000000000003 302.72999999999996 C 302.55 299.91999999999996 306.05 298.52 310.3 298.52 C 314.55 298.52 318.05 299.91999999999996 320.82 302.72999999999996 C 323.59 305.53999999999996 324.96999999999997 309.09 324.96999999999997 313.39 C 324.97 317.69 323.59 321.24 320.82 324.03 z M 310.3 322.63 C 312.74 322.63 314.72 321.78 316.26 320.08 C 317.79999999999995 318.38 318.56 316.15 318.56 313.38 C 318.56 310.61 317.79 308.38 316.26 306.65999999999997 C 314.73 304.95 312.74 304.09 310.3 304.09 C 307.89 304.09 305.92 304.95 304.38 306.65999999999997 C 302.85 308.36999999999995 302.08 310.60999999999996 302.08 313.38 C 302.08 316.15 302.84999999999997 318.38 304.38 320.08 C 305.91 321.78 307.89 322.63 310.3 322.63 z" stroke-linecap="round" />
</g>
		<g transform="matrix(1 0 0 1 42.05 13.46)"  >
<path style="stroke: none; stroke-width: 1; stroke-dasharray: none; stroke-linecap: butt; stroke-dashoffset: 0; stroke-linejoin: miter; stroke-miterlimit: 4; fill: rgb(255,255,255); fill-rule: nonzero; opacity: 1;" vector-effect="non-scaling-stroke"  transform=" translate(-341.63, -313.46)" d="M 352.66 322.02 C 353.07000000000005 322.02 353.41 321.97999999999996 353.69 321.9 L 353.69 327.57 C 353.2 327.73 352.61 327.82 351.92 327.82 C 349.32 327.82 347.13 327.2 345.37 325.95 C 343.6 324.7 341.95 322.36 340.42 318.90999999999997 L 339.56 317.14 L 335.7 317.14 L 335.7 327.65999999999997 L 329.58 327.65999999999997 L 329.58 299.10999999999996 L 342.4 299.10999999999996 C 345.48999999999995 299.10999999999996 347.98999999999995 299.91999999999996 349.88 301.53 C 351.77 303.15 352.71 305.35999999999996 352.71 308.19 C 352.71 310.35 352.12 312.13 350.94 313.53 C 349.76 314.92999999999995 348.11 315.84 345.96999999999997 316.28 C 347.15 318.53 348.26 320.04999999999995 349.29999999999995 320.84 C 350.3399999999999 321.63 351.45 322.02 352.66 322.02 z M 335.69 304.39 L 335.69 311.87 L 341.73 311.87 C 344.77000000000004 311.87 346.29 310.62 346.29 308.13 C 346.29 305.64 344.74 304.39 341.65000000000003 304.39 L 335.69 304.39 z" stroke-linecap="round" />
</g>
		<g transform="matrix(1 0 0 1 66.79 13.36)"  >
<path style="stroke: none; stroke-width: 1; stroke-dasharray: none; stroke-linecap: butt; stroke-dashoffset: 0; stroke-linejoin: miter; stroke-miterlimit: 4; fill: rgb(255,255,255); fill-rule: nonzero; opacity: 1;" vector-effect="non-scaling-stroke"  transform=" translate(-366.38, -313.37)" d="M 363.34 327.64 L 363.34 304.68 L 354.54999999999995 304.68 L 354.54999999999995 299.09000000000003 L 378.21 299.09000000000003 L 378.21 304.68 L 369.46 304.68 L 369.46 327.64 L 363.34 327.64 z" stroke-linecap="round" />
</g>
		<g transform="matrix(1 0 0 1 91.3 13.36)"  >
<path style="stroke: none; stroke-width: 1; stroke-dasharray: none; stroke-linecap: butt; stroke-dashoffset: 0; stroke-linejoin: miter; stroke-miterlimit: 4; fill: rgb(255,255,255); fill-rule: nonzero; opacity: 1;" vector-effect="non-scaling-stroke"  transform=" translate(-390.88, -313.37)" d="M 398.67 327.64 L 396.29 320.78 L 385.4 320.78 L 383.09999999999997 327.64 L 376.68999999999994 327.64 L 386.87999999999994 299.09 L 394.88999999999993 299.09 L 405.0799999999999 327.64 L 398.67 327.64 z M 387 315.98 L 394.6 315.98 L 390.74 304.85 L 387 315.98 z" stroke-linecap="round" />
</g>
		<g transform="matrix(1 0 0 1 118.02 13.36)"  >
<path style="stroke: none; stroke-width: 1; stroke-dasharray: none; stroke-linecap: butt; stroke-dashoffset: 0; stroke-linejoin: miter; stroke-miterlimit: 4; fill: rgb(255,255,255); fill-rule: nonzero; opacity: 1;" vector-effect="non-scaling-stroke"  transform=" translate(-417.61, -313.37)" d="M 408.04 327.64 L 408.04 299.09 L 414.16 299.09 L 414.16 322.04999999999995 L 427.18 322.04999999999995 L 427.18 327.63999999999993 L 408.04 327.63999999999993 z" stroke-linecap="round" />
</g>
</g>
</g>
</svg>